<?xml version="1.0" encoding="UTF-8"?>
<svg version="1.1" xmlns="http://www.w3.org/2000/svg" width="1024" height="1024">
<path d="M0 0 C337.92 0 675.84 0 1024 0 C1024 337.92 1024 675.84 1024 1024 C686.08 1024 348.16 1024 0 1024 C0 686.08 0 348.16 0 0 Z " fill="#627C89" transform="translate(0,0)"/>
<path d="M0 0 C0.6819342 0.00005035 1.36386841 0.00010071 2.06646729 0.00015259 C14.30230726 0.04203467 14.30230726 0.04203467 19.4375 2.4375 C19.4375 3.0975 19.4375 3.7575 19.4375 4.4375 C20.489375 4.499375 21.54125 4.56125 22.625 4.625 C27.2237941 5.60507087 28.35573744 6.97051712 31.4375 10.4375 C32.53364146 11.32253273 33.63847557 12.19686585 34.75 13.0625 C45.82270846 22.49122555 51.12114209 35.24303816 52.4375 49.4375 C53.69302807 65.63497821 50.84568442 81.14800666 45.4375 96.4375 C44.7775 96.4375 44.1175 96.4375 43.4375 96.4375 C43.4375 98.4175 43.4375 100.3975 43.4375 102.4375 C42.7775 102.4375 42.1175 102.4375 41.4375 102.4375 C41.4375 103.4275 41.4375 104.4175 41.4375 105.4375 C40.4475 105.9325 40.4475 105.9325 39.4375 106.4375 C38.62558554 108.22312347 37.8877415 110.04270142 37.1875 111.875 C35.12738549 117.01611663 32.6675867 121.55310731 29.73046875 126.234375 C28.18784456 128.86289478 27.21217733 131.49372615 26.4375 134.4375 C25.7775 134.4375 25.1175 134.4375 24.4375 134.4375 C24.19902344 135.26636719 23.96054687 136.09523438 23.71484375 136.94921875 C22.2192125 141.03361846 20.23511135 144.53328727 18 148.25 C17.5575293 148.99209717 17.11505859 149.73419434 16.65917969 150.4987793 C8.96718397 163.30570891 0.69410192 175.66910759 -7.96777344 187.83911133 C-8.53657227 188.6411499 -9.10537109 189.44318848 -9.69140625 190.26953125 C-10.19744385 190.97827393 -10.70348145 191.6870166 -11.22485352 192.41723633 C-12.5153966 194.36635917 -13.56613049 196.3252915 -14.5625 198.4375 C-14.01722656 198.25574219 -13.47195313 198.07398438 -12.91015625 197.88671875 C-11.32460894 197.35820298 -9.73864125 196.83094734 -8.15234375 196.3046875 C-6.4538547 195.73596266 -4.75838086 195.15813467 -3.06640625 194.5703125 C-2.28136719 194.29960937 -1.49632812 194.02890625 -0.6875 193.75 C0.39144531 193.37294922 0.39144531 193.37294922 1.4921875 192.98828125 C3.4375 192.4375 3.4375 192.4375 6.4375 192.4375 C6.4375 191.7775 6.4375 191.1175 6.4375 190.4375 C20.55433859 184.63951272 36.36506921 184.93993625 51 188.75 C51.82733643 188.96285645 52.65467285 189.17571289 53.50708008 189.39501953 C55.81640625 190.05078125 55.81640625 190.05078125 59.4375 191.4375 C59.7675 192.4275 60.0975 193.4175 60.4375 194.4375 C62.43663663 195.1067512 64.43678661 195.77297734 66.4375 196.4375 C73.51176921 201.51467917 78.50956566 207.23044401 82.21875 215.08984375 C83.27685824 217.43505379 83.27685824 217.43505379 84.91455078 218.85644531 C89.31892437 223.42886008 90.11044271 231.07186304 91.0625 237.125 C91.30428844 238.58730562 91.54646592 240.04954698 91.7890625 241.51171875 C92.11003906 243.45498047 92.11003906 243.45498047 92.4375 245.4375 C92.61240967 246.2217334 92.78731934 247.0059668 92.9675293 247.81396484 C96.5261661 267.6794771 93.95892896 291.5054131 84.453125 309.34765625 C82.40812821 313.55563042 80.96392479 318.02061124 79.4375 322.4375 C78.7775 322.4375 78.1175 322.4375 77.4375 322.4375 C77.20160156 323.28957031 76.96570313 324.14164063 76.72265625 325.01953125 C75.28564327 328.84137427 73.28254843 331.87332911 70.875 335.125 C70.42664795 335.73875488 69.9782959 336.35250977 69.51635742 336.98486328 C63.11786389 345.67200096 56.21933789 353.78909488 48.875 361.6875 C48.26180908 362.34927246 47.64861816 363.01104492 47.0168457 363.69287109 C42.73141335 368.24596463 38.20952607 372.40046107 33.4375 376.4375 C32.54804687 377.19675781 31.65859375 377.95601562 30.7421875 378.73828125 C17.13620357 390.00368595 2.52874355 399.30672453 -12.5625 408.4375 C-13.42174072 408.95803955 -14.28098145 409.4785791 -15.16625977 410.01489258 C-20.65644118 413.3267201 -26.19567511 416.52790181 -31.81054688 419.62304688 C-34.15302796 420.93954742 -36.26662062 422.13287542 -38.1484375 424.0703125 C-40.12956154 425.98576392 -42.11356185 426.40597141 -44.75 427.125 C-45.65105469 427.37636719 -46.55210937 427.62773438 -47.48046875 427.88671875 C-48.51107422 428.15935547 -48.51107422 428.15935547 -49.5625 428.4375 C-49.5625 429.0975 -49.5625 429.7575 -49.5625 430.4375 C-50.14257812 430.69144531 -50.72265625 430.94539063 -51.3203125 431.20703125 C-52.10148438 431.55121094 -52.88265625 431.89539063 -53.6875 432.25 C-54.45320312 432.58644531 -55.21890625 432.92289063 -56.0078125 433.26953125 C-57.27238281 433.84767578 -57.27238281 433.84767578 -58.5625 434.4375 C-59.55507813 434.88480469 -60.54765625 435.33210938 -61.5703125 435.79296875 C-64.72347137 437.52597121 -66.78351934 439.39199006 -69.3125 441.9375 C-76.03044579 448.23904419 -83.70546475 452.72076941 -91.64746094 457.31982422 C-93.27420101 458.26923983 -94.87813237 459.25756576 -96.4765625 460.25390625 C-98.5625 461.4375 -98.5625 461.4375 -100.5625 461.4375 C-100.5625 462.0975 -100.5625 462.7575 -100.5625 463.4375 C-104.65767597 467.66065022 -107.93818927 468.0561908 -113.5625 468.4375 C-113.8925 469.4275 -114.2225 470.4175 -114.5625 471.4375 C-117.4765625 472.82421875 -117.4765625 472.82421875 -121.1875 474.125 C-122.39664063 474.56199219 -123.60578125 474.99898437 -124.8515625 475.44921875 C-128.59631508 476.44650549 -131.70765539 476.62082809 -135.5625 476.4375 C-135.70945312 475.30828125 -135.70945312 475.30828125 -135.859375 474.15625 C-137.2336799 464.39394623 -139.47615896 454.957264 -142.11053944 445.46221066 C-142.88835856 441.97770606 -142.70976187 438.41792482 -142.70776367 434.86352539 C-142.71107413 433.99410372 -142.71438459 433.12468204 -142.71779537 432.22891426 C-142.7272186 429.33098224 -142.72911734 426.43310255 -142.73046875 423.53515625 C-142.73441256 421.48708559 -142.73855673 419.43901531 -142.7428894 417.39094543 C-142.75225825 411.89820316 -142.75327124 406.40549153 -142.75117874 400.91274261 C-142.75000108 397.50312704 -142.75053026 394.09351458 -142.75119019 390.68389893 C-142.74989424 359.52543829 -142.38406407 328.43765461 -141.09765625 297.3046875 C-139.56339624 259.67401292 -139.37398954 222.04710651 -139.37738878 184.39094114 C-139.37703833 178.68176554 -139.36539924 172.97265134 -139.3514536 167.26349503 C-139.33822376 161.63682703 -139.33301933 156.01018578 -139.33365268 150.38350242 C-139.33390203 147.07335086 -139.33037676 143.76333337 -139.32047462 140.45318794 C-139.26386889 119.63131133 -139.55740017 98.75100795 -143.5371809 78.25193691 C-144.75244504 71.99049939 -145.19048966 65.75462488 -145.40625 59.38671875 C-145.50743332 55.51839127 -145.50743332 55.51839127 -145.96875 52.01953125 C-146.35760292 47.75835135 -146.46648586 44.78538684 -144.03515625 41.16015625 C-141.40061121 38.59969332 -138.5909429 36.4956115 -135.5625 34.4375 C-134.82225586 33.93041504 -134.08201172 33.42333008 -133.31933594 32.90087891 C-127.4840068 28.94442815 -121.55101127 25.15706441 -115.5625 21.4375 C-114.92892578 21.04191895 -114.29535156 20.64633789 -113.64257812 20.23876953 C-107.93525244 16.70055751 -102.2928373 13.73515642 -95.9921875 11.41015625 C-93.39153107 10.36905745 -91.01930114 9.09320436 -88.5625 7.75 C-83.70179945 5.2464696 -79.03493097 4.28272417 -73.5625 4.4375 C-72.5625 5.4375 -72.5625 5.4375 -72.46484375 8.59765625 C-72.47644531 9.88542969 -72.48804688 11.17320312 -72.5 12.5 C-72.50902344 13.79035156 -72.51804687 15.08070313 -72.52734375 16.41015625 C-72.53894531 17.40917969 -72.55054688 18.40820312 -72.5625 19.4375 C-69.22342519 18.14914901 -66.0505839 16.71065429 -62.875 15.0625 C-43.11241699 5.09324448 -22.09765051 -0.06621091 0 0 Z " fill="#000101" transform="translate(645.5625,204.5625)"/>
<path d="M0 0 C1.43619531 15.66884469 2.32434736 31.34527714 3 47.0625 C3.06160309 48.49449234 3.06160309 48.49449234 3.12445068 49.95541382 C3.64663406 62.24685626 4.09407494 74.54013698 4.5 86.8359375 C4.5419751 88.09186203 4.5839502 89.34778656 4.62719727 90.64176941 C4.83177286 96.77600707 5.02985435 102.91030594 5.21484375 109.04516602 C5.58761384 120.81528949 6.15937027 132.51568296 7.30114746 144.23887634 C7.90639668 150.47102915 8.24109164 156.6794803 8.4375 162.9375 C8.69006989 170.14483854 9.07172593 177.3242051 9.65625 184.51171875 C9.74932686 185.65678391 9.74932686 185.65678391 9.84428406 186.82498169 C9.9749939 188.42962663 10.10570583 190.0342714 10.23641968 191.63891602 C12.34633034 217.72508417 13.21068668 243.84533461 14 270 C14.0419046 271.3658725 14.0419046 271.3658725 14.08465576 272.75933838 C14.8534908 297.92277984 15.19788245 323.09356534 15.56277466 348.26535034 C15.8169059 365.782403 16.08972436 383.29825678 16.5 400.8125 C16.51896332 401.65766174 16.53792664 402.50282349 16.5574646 403.37359619 C16.72919273 410.93575036 16.9297616 418.48207295 17.42578125 426.03125 C17.49023438 427.03567139 17.5546875 428.04009277 17.62109375 429.07495117 C17.74157445 430.79810184 17.88083692 432.52014301 18.046875 434.23950195 C18.29769179 437.61444074 18.18661223 439.66616598 16.51953125 442.6484375 C13.19713072 445.74934466 9.64543667 448.28650978 5.875 450.8125 C5.14667969 451.31458984 4.41835938 451.81667969 3.66796875 452.33398438 C-1.72880527 456 -1.72880527 456 -4 456 C-4.33 456.99 -4.66 457.98 -5 459 C-11.11111111 462 -11.11111111 462 -14 462 C-14 462.99 -14 463.98 -14 465 C-17.23890728 466.39861905 -20.47477276 467.78961068 -23.75 469.1015625 C-28.95013802 471.20057654 -33.84303365 473.41670061 -38.6875 476.25 C-43.58979942 479.02891973 -47.39218925 479.81613735 -53 480 C-53 476.04 -53 472.08 -53 468 C-54.093125 468.495 -55.18625 468.99 -56.3125 469.5 C-60 471 -60 471 -63 471 C-63 471.66 -63 472.32 -63 473 C-66.71397569 475.84738136 -70.75375795 476.90350329 -75.20703125 478.05859375 C-78.25712964 479.08666887 -80.96664745 480.44772661 -83.82495117 481.91430664 C-87.5601726 483.77877288 -91.40158969 485.38553157 -95.25 487 C-96.08047852 487.34957764 -96.91095703 487.69915527 -97.76660156 488.05932617 C-103.28721349 490.35600793 -108.83708509 492.39584846 -114.54296875 494.19140625 C-116.78912618 494.93060273 -118.90728443 495.78171475 -121.0625 496.75 C-124 498 -124 498 -127 498 C-127.33 498.99 -127.66 499.98 -128 501 C-129.61420804 501.44648307 -131.23149674 501.88360897 -132.859375 502.27734375 C-135.42147971 503.14228786 -137.41455806 504.41225188 -139.6875 505.875 C-144.27725599 508.74272954 -148.76008276 510.41989053 -153.921875 511.98828125 C-157.11300679 513.03714309 -160.07220118 514.35275746 -163.125 515.75 C-168.49193179 518.02495928 -173.20608063 519.13692003 -179 518 C-181.625 516.5625 -181.625 516.5625 -183 514 C-183.88638105 508.41058538 -183.33895215 504.65407553 -180 500 C-171.28636401 491.66905748 -161.00650766 485.17183145 -150.09375 480.140625 C-147.9954446 479.13418574 -147.9954446 479.13418574 -146.67578125 477.62109375 C-144.05430336 475.08516525 -140.87502025 473.52552109 -137.6875 471.8125 C-136.71006836 471.26045898 -136.71006836 471.26045898 -135.71289062 470.69726562 C-131.63865351 468.49905361 -128.74823384 467.55094223 -124 468 C-124 467.34 -124 466.68 -124 466 C-118.40420264 462.60625252 -113.43082787 460.28616557 -107 459 C-107 458.34 -107 457.68 -107 457 C-104.56427941 456.16112944 -102.12666783 455.32873471 -99.6875 454.5 C-98.99720703 454.26152344 -98.30691406 454.02304687 -97.59570312 453.77734375 C-94.61068511 452.76791737 -92.17341086 452 -89 452 C-89 451.01 -89 450.02 -89 449 C-82.22091548 446.0983464 -75.40072327 443.34726763 -68.5 440.75 C-67.81808594 440.49202637 -67.13617188 440.23405273 -66.43359375 439.96826172 C-63.31315832 438.80275117 -60.23953405 437.76819181 -57 437 C-56.80680931 413.94018689 -57.32283458 390.89347145 -57.79956055 367.83984375 C-57.91543326 362.23313602 -58.02621894 356.62634097 -58.13556576 351.01950264 C-58.22179134 346.6300108 -58.31087544 342.24058029 -58.40075874 337.85116196 C-58.44270439 335.78555973 -58.4837784 333.71993958 -58.5238781 331.65430069 C-58.73895798 320.65337557 -59.04597159 309.67113114 -59.66300869 298.68452644 C-60.07835398 291.20234725 -60.11415498 283.74394594 -60.0625 276.25 C-60.05798828 274.95707031 -60.05347656 273.66414063 -60.04882812 272.33203125 C-60.0373069 269.22129952 -60.02105312 266.11067916 -60 263 C-60.51989502 263.24524414 -61.03979004 263.49048828 -61.57543945 263.74316406 C-67.6526376 266.53540826 -73.81654539 268.72898921 -80.1875 270.75 C-81.14591797 271.06582031 -82.10433594 271.38164062 -83.09179688 271.70703125 C-87.84611039 273.22499452 -91.94271442 274.44198126 -97 274 C-97.2386377 274.63083496 -97.47727539 275.26166992 -97.72314453 275.91162109 C-99 278 -99 278 -100.99951172 278.88134766 C-101.80146973 279.05714355 -102.60342773 279.23293945 -103.4296875 279.4140625 C-104.30753906 279.61773438 -105.18539062 279.82140625 -106.08984375 280.03125 C-107.00894531 280.2271875 -107.92804688 280.423125 -108.875 280.625 C-110.68583282 281.029684 -112.49577066 281.43839848 -114.3046875 281.8515625 C-115.10890137 282.02510254 -115.91311523 282.19864258 -116.74169922 282.37744141 C-119.02264135 283.00624167 -120.89678694 283.93338222 -123 285 C-125.796875 285.4140625 -125.796875 285.4140625 -128.75 285.625 C-130.22726562 285.73714844 -130.22726562 285.73714844 -131.734375 285.8515625 C-132.48203125 285.90054687 -133.2296875 285.94953125 -134 286 C-134 286.66 -134 287.32 -134 288 C-134.55872803 288.13051758 -135.11745605 288.26103516 -135.69311523 288.39550781 C-138.27681848 289.00456739 -140.85707548 289.6272017 -143.4375 290.25 C-144.31599609 290.45496094 -145.19449219 290.65992188 -146.09960938 290.87109375 C-151.31913555 292.14226987 -156.0326533 293.77478733 -160.89428711 296.05419922 C-165.19510392 297.98595161 -169.74893909 299.19041854 -174.25390625 300.55859375 C-177.07251617 301.52459448 -179.36015045 302.79218259 -181.84375 304.43359375 C-186.28944766 307.33511545 -190.91634385 308.97295167 -195.9375 310.625 C-196.77990234 310.91117188 -197.62230469 311.19734375 -198.49023438 311.4921875 C-201.81145837 312.61715945 -205.13579817 313.72693741 -208.47949219 314.78344727 C-212.46438851 316.05728743 -215.88866631 317.31821609 -219.375 319.6875 C-224.47718079 322.70365643 -229.22375257 322.48585259 -235 322 C-234.979375 321.071875 -234.95875 320.14375 -234.9375 319.1875 C-234.84230396 315.97713989 -234.84230396 315.97713989 -236 313 C-237.65 313 -239.3 313 -241 313 C-240.40204806 307.12357577 -237.17225328 304.95436128 -232.87890625 301.265625 C-228.46949076 297.79552869 -223.79715788 294.89715995 -219 292 C-217.18513026 290.83702313 -215.37262898 289.67034201 -213.5625 288.5 C-190.6883427 274 -190.6883427 274 -184 274 C-184 273.34 -184 272.68 -184 272 C-182.68 272 -181.36 272 -180 272 C-180 271.34 -180 270.68 -180 270 C-178.99839844 269.68546875 -177.99679687 269.3709375 -176.96484375 269.046875 C-168.80003836 266.6271917 -168.80003836 266.6271917 -161.25 262.8125 C-156.7109534 260.28110863 -152.10474402 259.70155614 -147 259 C-147 258.34 -147 257.68 -147 257 C-123.90398404 249.17494497 -123.90398404 249.17494497 -113.1875 246 C-112.49599854 245.79286377 -111.80449707 245.58572754 -111.09204102 245.37231445 C-108.28198715 244.55472106 -105.94491397 244 -103 244 C-103 243.34 -103 242.68 -103 242 C-102.41621582 241.84442627 -101.83243164 241.68885254 -101.23095703 241.52856445 C-87.31519193 238.05695053 -87.31519193 238.05695053 -74.328125 232.17578125 C-70.70959992 230.34830466 -66.858809 229.21947064 -63 228 C-63.13277344 226.72769531 -63.26554688 225.45539063 -63.40234375 224.14453125 C-65.19917719 206.44453303 -66.24601 188.79472345 -66 171 C-66.66 171 -67.32 171 -68 171 C-68.84205231 159.15298008 -69.26895648 147.32918304 -69.53515625 135.45703125 C-69.57831415 133.6309907 -69.62173045 131.80495624 -69.66539001 129.97892761 C-69.77829692 125.22506772 -69.88741978 120.47112829 -69.99578857 115.71716309 C-70.08513077 111.82714021 -70.1772587 107.93718555 -70.26950932 104.04723072 C-70.37984021 99.39218639 -70.48891468 94.73711295 -70.59765625 90.08203125 C-70.62860225 88.75980529 -70.62860225 88.75980529 -70.66017342 87.41086769 C-70.71821593 84.91821388 -70.77540249 82.42554207 -70.83227539 79.93286133 C-70.84940582 79.19986313 -70.86653625 78.46686493 -70.88418579 77.71165466 C-70.96472595 74.14031161 -71.01868448 70.57227154 -71 67 C-80.79165476 69.42981929 -90.31521188 71.93084171 -99.67578125 75.7421875 C-104.34487041 77.50886989 -109.10916044 78.86894406 -113.91455078 80.21289062 C-117.38101811 81.19076092 -120.75287183 82.25445275 -124.11328125 83.5546875 C-127.49022551 84.85259072 -130.82958684 85.74983701 -134.375 86.5 C-138.27200344 87.3580558 -142.07493986 88.28398075 -145.875 89.5 C-151.29202935 91.19337579 -156.8165646 92.21281091 -162.38671875 93.25390625 C-165.95627304 93.94322516 -165.95627304 93.94322516 -169.22265625 94.92578125 C-174.35187381 96.38445222 -179.53942508 97.49768065 -184.75 98.625 C-185.79027344 98.85445313 -186.83054687 99.08390625 -187.90234375 99.3203125 C-188.89878906 99.536875 -189.89523437 99.7534375 -190.921875 99.9765625 C-192.27684082 100.27167725 -192.27684082 100.27167725 -193.65917969 100.57275391 C-196 101 -196 101 -199 101 C-199 101.66 -199 102.32 -199 103 C-207.33678814 105.72619057 -215.15924456 108.04715744 -224 107 C-225 106 -225 106 -225.09765625 104.15234375 C-225.04882812 101.07617188 -225.04882812 101.07617188 -225 98 C-226.65 98 -228.3 98 -230 98 C-229.86685475 92.54104473 -227.81625933 90.41855005 -224.10131836 86.83911133 C-220.5689153 83.74748914 -216.7405202 81.18323244 -212.8125 78.625 C-212.01908203 78.09261719 -211.22566406 77.56023437 -210.40820312 77.01171875 C-206.90069916 74.69694284 -204.09918485 72.97617899 -200 72 C-199.566875 71.525625 -199.13375 71.05125 -198.6875 70.5625 C-196.15934702 68.22161761 -193.28887243 67.80670456 -190 67 C-190 66.34 -190 65.68 -190 65 C-188.39850114 64.32694982 -186.79368971 63.66177773 -185.1875 63 C-184.29417969 62.62875 -183.40085937 62.2575 -182.48046875 61.875 C-180 61 -180 61 -177 61 C-176.67 60.01 -176.34 59.02 -176 58 C-173.3194458 57.21432032 -170.72392577 56.57526952 -168 56 C-159.30837147 53.65994617 -150.86526215 50.97917119 -142.75 47.0625 C-137.18609159 44.41079335 -131.62492038 42.51195107 -125.73803711 40.75634766 C-122.01329909 39.64221371 -118.40042647 38.43441088 -114.8125 36.9375 C-109.65319143 34.79702653 -104.37964769 33.19226745 -99.02685547 31.60791016 C-96.68079765 30.90426236 -94.3425725 30.17704872 -92.00390625 29.44921875 C-90.23183419 28.90344008 -88.45969878 28.35786707 -86.6875 27.8125 C-85.8517041 27.55033691 -85.0159082 27.28817383 -84.15478516 27.01806641 C-79.08542192 25.4727624 -74.27797089 24.50410999 -69 24 C-69 23.34 -69 22.68 -69 22 C-67.94425781 21.72027344 -66.88851562 21.44054687 -65.80078125 21.15234375 C-57.10105952 18.81152669 -48.49055472 16.27012952 -39.9375 13.4375 C-39.08260986 13.15704834 -38.22771973 12.87659668 -37.34692383 12.58764648 C-31.73729447 10.70465959 -26.36396342 8.49406417 -21 6 C-19.20949219 5.17435547 -19.20949219 5.17435547 -17.3828125 4.33203125 C-15.1951115 3.31162874 -13.0076143 2.29078918 -10.8203125 1.26953125 C-6.5997587 -0.63030252 -4.47482528 -1.08847101 0 0 Z " fill="#010101" transform="translate(462,233)"/>
<path d="M0 0 C1.35422308 0.62313888 2.69194652 1.28500467 4 2 C5.98573786 2.48042045 7.971684 2.96013202 9.9609375 3.42578125 C12.84588088 4.23820783 15.38251578 5.56038368 18 7 C18 7.66 18 8.32 18 9 C18.70125 9.226875 19.4025 9.45375 20.125 9.6875 C25.49303872 12.13812637 29.73734927 16.1060239 33 21 C33 22.32 33 23.64 33 25 C33.66 25 34.32 25 35 25 C35.495 26.98 35.495 26.98 36 29 C36.66 29 37.32 29 38 29 C43.93357191 42.98176785 47.19888224 55.8300028 47.1875 71 C47.18741943 72.00442139 47.18733887 73.00884277 47.18725586 74.04370117 C47.02894724 94.94210552 47.02894724 94.94210552 44 101 C43.34 101 42.68 101 42 101 C41.90203125 101.76183594 41.8040625 102.52367187 41.703125 103.30859375 C40.70797986 110.18024249 39.16092381 115.83887733 36 122 C35.54753906 122.91652344 35.09507812 123.83304688 34.62890625 124.77734375 C33.43327445 127.19231676 32.22312439 129.59886646 31 132 C30.34 132 29.68 132 29 132 C28.74863281 132.88816406 28.49726562 133.77632812 28.23828125 134.69140625 C26.95189389 138.12853589 25.55436517 140.15786056 23.1875 142.9375 C22.38441406 143.88367188 21.58132813 144.82984375 20.75390625 145.8046875 C20.31320801 146.31483398 19.87250977 146.82498047 19.41845703 147.35058594 C17.89737171 149.11933851 16.39960732 150.9063622 14.90234375 152.6953125 C1.97081669 168.03483279 -11.69700308 181.50137678 -32 186 C-32.99 186 -33.98 186 -35 186 C-35 186.66 -35 187.32 -35 188 C-35.99 188 -36.98 188 -38 188 C-38 188.66 -38 189.32 -38 190 C-39.65 190 -41.3 190 -43 190 C-43.48451938 187.23001185 -43.96267495 184.45915318 -44.4375 181.6875 C-44.57220703 180.92115234 -44.70691406 180.15480469 -44.84570312 179.36523438 C-46.72430519 168.32271982 -47.16032231 157.41153692 -47.16796875 146.22265625 C-47.17192543 144.7876836 -47.1760705 143.35271147 -47.1803894 141.91773987 C-47.1896908 138.09047555 -47.19077986 134.26325545 -47.18867874 130.43598175 C-47.18749553 128.0534908 -47.18803292 125.67100426 -47.18869019 123.28851318 C-47.18710814 96.53856716 -46.69623049 69.82867115 -45.24194336 43.11279297 C-45.06330535 39.74322408 -44.97456419 36.39026421 -44.96313477 33.01611328 C-44.84211158 22.29151131 -44.84211158 22.29151131 -42.6472168 18.92529297 C-40.7630799 17.43509526 -39.0280251 16.54596937 -36.8125 15.625 C-35.33766375 14.87917778 -33.86767047 14.12371154 -32.40234375 13.359375 C-31.66097168 12.98619141 -30.91959961 12.61300781 -30.15576172 12.22851562 C-27.30502599 10.60395139 -25.01409261 8.57789682 -22.57836914 6.39672852 C-15.49670634 0.07022655 -9.70953446 -1.90860242 0 0 Z " fill="#617A87" transform="translate(621,434)"/>
<path d="M0 0 C-1.34079173 3.73695912 -3.00354798 6.63555479 -5.375 9.8125 C-6.08398438 10.76769531 -6.79296875 11.72289062 -7.5234375 12.70703125 C-8.34842084 13.80509153 -9.17398123 14.90271842 -10 16 C-10.97150902 17.2954568 -11.94285527 18.59103568 -12.9140625 19.88671875 C-14.46350028 21.95288291 -16.01381686 24.01835717 -17.56689453 26.08178711 C-20.50202736 29.98461252 -23.3976744 33.9109412 -26.25 37.875 C-29.27714202 42.06213292 -32.45714694 46.09014262 -35.70703125 50.10546875 C-38.67939476 53.85763461 -41.56286502 57.67268477 -44.4375 61.5 C-44.97020508 62.20729248 -45.50291016 62.91458496 -46.05175781 63.64331055 C-46.54901367 64.30758057 -47.04626953 64.97185059 -47.55859375 65.65625 C-48.00517334 66.25244141 -48.45175293 66.84863281 -48.91186523 67.46289062 C-50.07495716 69.02343236 -50.07495716 69.02343236 -51 71 C-47.99985311 69.89623219 -44.99991006 68.79191133 -42 67.6875 C-40.74123047 67.2244043 -40.74123047 67.2244043 -39.45703125 66.75195312 C-38.62558594 66.44580078 -37.79414062 66.13964844 -36.9375 65.82421875 C-36.10307373 65.51766357 -35.26864746 65.2111084 -34.40893555 64.89526367 C-32.89604088 64.33300718 -31.38648467 63.76159537 -29.88208008 63.17700195 C-25.21726083 61.36803077 -20.54802657 59.99206122 -15.6875 58.8125 C-14.98560547 58.63525391 -14.28371094 58.45800781 -13.56054688 58.27539062 C-10.63099509 57.55207898 -8.02938142 57 -5 57 C-5 56.34 -5 55.68 -5 55 C-1.535 54.505 -1.535 54.505 2 54 C1.51610441 58.68341807 -0.62219426 61.57223257 -3.5 65.125 C-3.94996338 65.69412109 -4.39992676 66.26324219 -4.86352539 66.84960938 C-6.23249269 68.57458029 -7.61432662 70.28843397 -9 72 C-9.75152344 72.93585938 -10.50304687 73.87171875 -11.27734375 74.8359375 C-15.76350391 80.36859795 -20.36559775 85.80023805 -24.97753906 91.2277832 C-29.72910841 96.83333278 -34.30319751 102.57340741 -38.84765625 108.34765625 C-46.14324305 117.56076895 -53.78118302 126.49331577 -61.6875 135.1875 C-65.53533784 139.42358814 -69.14199194 143.8225998 -72.7421875 148.26953125 C-75.68969283 151.8340749 -78.77711012 155.25628302 -81.890625 158.67578125 C-83.74626657 160.72042335 -85.56756376 162.78784149 -87.375 164.875 C-89.86513773 167.74068055 -92.41743306 170.54062096 -94.99975586 173.32348633 C-99.4425677 178.11786045 -103.68718537 182.98097688 -107.7265625 188.125 C-119.17232167 202.59936211 -131.15981538 216.65079555 -143.5625 230.3125 C-144.05121582 230.8580957 -144.53993164 231.40369141 -145.04345703 231.96582031 C-147.53103846 234.67496418 -149.68511834 236.45498951 -153 238 C-153.66 238.99 -154.32 239.98 -155 241 C-157.1640625 241.94921875 -157.1640625 241.94921875 -159.625 242.6875 C-160.44226563 242.93886719 -161.25953125 243.19023438 -162.1015625 243.44921875 C-163.04128906 243.72185547 -163.04128906 243.72185547 -164 244 C-164 244.99 -164 245.98 -164 247 C-166.08108685 247.67364661 -168.1649671 248.33866798 -170.25 249 C-171.41015625 249.37125 -172.5703125 249.7425 -173.765625 250.125 C-177 251 -177 251 -181 251 C-179.81577769 244.60519955 -175.67308813 240.36984222 -171.3125 235.8125 C-166.24211573 230.41821473 -161.55723705 224.83662532 -157 219 C-150.95671605 211.45751676 -144.68681277 204.12988205 -138.33984375 196.84375 C-135.11945435 193.14512201 -131.93287356 189.41840447 -128.75 185.6875 C-125.32573395 181.67640744 -121.86272725 177.71344294 -118.3125 173.8125 C-115.33975977 170.54195395 -112.51514086 167.19764386 -109.75 163.75 C-106.17146455 159.32062396 -102.3995907 155.14342046 -98.5 151 C-93.05427924 145.20324438 -87.97732907 139.20570836 -83 133 C-78.91486044 128.00452996 -74.80161183 123.0320432 -70.69384766 118.05517578 C-69.10883354 116.13204969 -67.52851779 114.20516336 -65.94921875 112.27734375 C-65.04964088 111.18476267 -64.14991204 110.09230586 -63.25 109 C-62.47140625 108.05125 -61.6928125 107.1025 -60.890625 106.125 C-59 104 -59 104 -57 103 C-56.0553829 101.30886431 -55.11200402 99.6170153 -54.17724609 97.92041016 C-52.27462866 94.81672107 -49.83012131 92.29849004 -47.3125 89.6875 C-43.75483054 86.14100237 -43.75483054 86.14100237 -41 82 C-42.216875 82.433125 -43.43375 82.86625 -44.6875 83.3125 C-48.44841311 84.57785394 -52.18007902 85.49922478 -56.0625 86.3125 C-61.35807066 87.47342815 -66.22564265 89.14054055 -71.25 91.125 C-76.88737524 93.35005035 -81.91901876 94.7828221 -88 95 C-88.99870824 91.92705158 -89.38691628 89.84966816 -88.0234375 86.85546875 C-84.60009766 81.30004883 -84.60009766 81.30004883 -82 80 C-81.7628125 79.31808594 -81.525625 78.63617187 -81.28125 77.93359375 C-79.42663926 73.68721366 -76.4974897 70.5620051 -73.5 67.0625 C-67.68967091 60.15125078 -62.33857817 53.06238435 -57.17333984 45.6640625 C-55.15852571 42.80659826 -53.08616508 39.9931197 -51 37.1875 C-50.278125 36.21167969 -49.55625 35.23585938 -48.8125 34.23046875 C-47 32 -47 32 -45 31 C-44.24869246 29.66919556 -43.54807307 28.30953357 -42.875 26.9375 C-39.336175 20.35339533 -34.12561376 15.24471991 -28 11 C-27.319375 10.835 -26.63875 10.67 -25.9375 10.5 C-23.89347959 10.1474721 -23.89347959 10.1474721 -22.5 8.5 C-20.69851305 6.69851305 -19.42864387 6.60716097 -17 6 C-16.31357422 5.29423828 -16.31357422 5.29423828 -15.61328125 4.57421875 C-11.49348112 0.55417165 -5.55919474 -0.41693961 0 0 Z " fill="#F8C54F" transform="translate(947,466)"/>
<path d="M0 0 C-1.52128853 16.85156463 -3.93904745 33.69372313 -7.42456055 50.2512207 C-9.50743794 60.21311703 -11.14852778 70.25279637 -12.8515625 80.28515625 C-14.54937698 90.25453702 -16.41084075 100.16748209 -18.5 110.0625 C-18.92747911 112.09496888 -19.35456657 114.12752018 -19.78125 116.16015625 C-19.9875 117.13742676 -20.19375 118.11469727 -20.40625 119.12158203 C-20.97678164 121.88744061 -21.50520206 124.65899912 -22.03125 127.43359375 C-22.69939043 130.82602946 -23.65585747 133.80766149 -25 137 C-25.56810742 139.81686595 -26.00177604 142.63657599 -26.4375 145.4765625 C-27 148 -27 148 -29 151 C-29.53049576 153.14849223 -29.53049576 153.14849223 -29.81640625 155.54296875 C-29.94039795 156.44321777 -30.06438965 157.3434668 -30.19213867 158.27099609 C-30.31435791 159.23344238 -30.43657715 160.19588867 -30.5625 161.1875 C-30.75646362 162.68144287 -30.75646362 162.68144287 -30.9543457 164.20556641 C-32.53097614 176.73589481 -33.07714797 189.12644786 -33.125 201.75 C-33.12975342 202.79913574 -33.13450684 203.84827148 -33.1394043 204.92919922 C-33.137229 205.91678223 -33.13505371 206.90436523 -33.1328125 207.921875 C-33.13112061 209.24590332 -33.13112061 209.24590332 -33.12939453 210.59667969 C-33.0071313 212.86754628 -32.63618014 214.82296252 -32 217 C-31.34 217 -30.68 217 -30 217 C-29.94577053 218.4370809 -29.90710277 219.87475462 -29.875 221.3125 C-29.85179687 222.11300781 -29.82859375 222.91351562 -29.8046875 223.73828125 C-30 226 -30 226 -32 229 C-36.35264636 232.45651329 -39.64997517 232.43145362 -45 232 C-45.99 231.34 -46.98 230.68 -48 230 C-48 229.34 -48 228.68 -48 228 C-48.66 228 -49.32 228 -50 228 C-52.41134636 222.73888067 -53.38492712 217.79588166 -54 212.0625 C-54.55417075 206.93860576 -55.38041342 202.3527793 -57.20703125 197.53125 C-60.15463954 188.12213585 -61.22319036 177.78780144 -62 168 C-62.66 168 -63.32 168 -64 168 C-64.58980854 164.58442067 -65.17146052 161.16750585 -65.75 157.75 C-65.92974365 156.68910156 -66.1094873 155.62820313 -66.29467773 154.53515625 C-67.29801896 148.51772975 -68.22629477 142.49780208 -69.05078125 136.453125 C-69.22061523 135.21079102 -69.39044922 133.96845703 -69.56542969 132.68847656 C-69.89069664 130.27485517 -70.20807221 127.86015391 -70.51660156 125.44433594 C-71.4087357 118.58873989 -71.4087357 118.58873989 -73.4921875 112.03515625 C-75.82985204 106.4420611 -76.27662828 100.40430378 -77.0625 94.4375 C-78.00191686 87.45412406 -78.93639114 80.73994139 -81 74 C-81.21748567 72.33920033 -81.3900417 70.67136613 -81.5 69 C-81.85070512 64.79153858 -82.82842255 61.06146849 -84 57 C-84.125 53.5625 -84.125 53.5625 -84 51 C-82.515 50.505 -82.515 50.505 -81 50 C-80.67 49.01 -80.34 48.02 -80 47 C-78.2578125 45.83203125 -78.2578125 45.83203125 -76.125 44.8125 C-75.42632813 44.46832031 -74.72765625 44.12414062 -74.0078125 43.76953125 C-72 43 -72 43 -69 43 C-67.2068148 48.50764026 -66.34211317 53.98302451 -65.5625 59.71875 C-64.95740569 63.24846679 -63.98755556 66.55797243 -63 70 C-62.23209798 73.38422393 -61.55025144 76.78373256 -60.875 80.1875 C-60.69324219 81.07630859 -60.51148438 81.96511719 -60.32421875 82.88085938 C-60.15277344 83.73873047 -59.98132813 84.59660156 -59.8046875 85.48046875 C-59.64983887 86.25285889 -59.49499023 87.02524902 -59.33544922 87.82104492 C-59 90 -59 90 -59 94 C-58.34 94 -57.68 94 -57 94 C-56.89042969 95.05316406 -56.78085937 96.10632813 -56.66796875 97.19140625 C-55.88370962 104.41942202 -54.97556809 111.51520486 -53.4375 118.625 C-51.84925506 126.0929598 -51.31321396 133.38566058 -51 141 C-50.34 141 -49.68 141 -49 141 C-48.66131223 143.20751848 -48.32928311 145.41605911 -48 147.625 C-47.814375 148.85476563 -47.62875 150.08453125 -47.4375 151.3515625 C-47.04597484 154.6166027 -46.91919076 157.71712451 -47 161 C-44.85569892 160.21929821 -44.85569892 160.21929821 -44.41772461 158.3137207 C-43.17963382 152.29813456 -42.30398908 146.28291513 -41.5625 140.1875 C-41.30466636 138.15738899 -41.04552586 136.12744357 -40.78515625 134.09765625 C-40.65512207 133.08203613 -40.52508789 132.06641602 -40.39111328 131.02001953 C-39.7906953 126.38383324 -39.16236382 121.75273286 -38.5 117.125 C-38.39373291 116.33633545 -38.28746582 115.5476709 -38.17797852 114.73510742 C-37.62247182 110.92933876 -36.87069463 107.44043165 -35.5625 103.8203125 C-33.38628991 97.63423382 -32.53267759 91.20590052 -31.5 84.75 C-30.33128709 77.53414032 -29.13951538 70.37064698 -27.44140625 63.2578125 C-26.08525234 57.57289859 -25.17048372 51.91947485 -24.4375 46.125 C-23.26051543 36.897441 -23.26051543 36.897441 -21.97265625 32.4609375 C-21.17973059 29.63952329 -20.76650695 27.29208049 -20.5 24.40625 C-19.25502789 11.5042843 -19.25502789 11.5042843 -15.7578125 7.3125 C-13.22896592 5.57157298 -10.79560398 4.25759693 -8 3 C-7.13117188 2.4534375 -6.26234375 1.906875 -5.3671875 1.34375 C-3 0 -3 0 0 0 Z " fill="#5F2F34" transform="translate(609,635)"/>
<path d="M0 0 C11.51548813 -1.05754483 21.6140035 2.35821434 31 9 C31.969375 9.680625 32.93875 10.36125 33.9375 11.0625 C42.55724213 18.46374455 48.75458334 31.83016937 50 43 C50.13677288 46.83444615 50.13955063 50.66348287 50.125 54.5 C50.13080078 56.02947266 50.13080078 56.02947266 50.13671875 57.58984375 C50.13033083 62.50215265 50.04131478 67.17358862 49 72 C48.34 72 47.68 72 47 72 C47.020625 73.27875 47.04125 74.5575 47.0625 75.875 C47.125 79.75 47.125 79.75 46 82 C45.34 82 44.68 82 44 82 C43.34 85.63 42.68 89.26 42 93 C41.34 93 40.68 93 40 93 C39.71640625 93.87398438 39.4328125 94.74796875 39.140625 95.6484375 C35.91116484 105.13774167 31.58976827 114.10436665 27 123 C26.34 123 25.68 123 25 123 C24.66548828 124.20076172 24.66548828 124.20076172 24.32421875 125.42578125 C22.62990241 129.99893596 20.28939365 133.9985196 17.8125 138.1875 C17.32144775 139.02522949 16.83039551 139.86295898 16.32446289 140.72607422 C5.79903679 158.6004816 5.79903679 158.6004816 3 160 C2.99503478 159.06962512 2.99503478 159.06962512 2.98996925 158.12045479 C2.90808696 142.89795511 2.81579406 127.6755552 2.71247292 112.45318794 C2.6627446 105.09120804 2.6163042 97.72923711 2.578125 90.3671875 C2.5447671 83.93654256 2.50471024 77.5059768 2.45720994 71.07542026 C2.43237006 67.68309353 2.41147645 64.29086542 2.39665604 60.89847183 C2.33104863 46.37852643 1.98102863 31.98232812 0.69034767 17.5137043 C0.16673446 11.64348993 -0.09521362 5.89441517 0 0 Z " fill="#607A86" transform="translate(576,248)"/>
<path d="M0 0 C2 2 2 2 2.5 5.4375 C2.19551594 16.64251329 -8.31231524 27.82406641 -15.99609375 35.25 C-26.06366892 44.04195649 -38.75244882 52.99999402 -52 56 C-54.82131975 64.53113354 -57.4088097 73.82349228 -53.453125 82.32421875 C-51.18578005 85.3371797 -51.18578005 85.3371797 -47.42578125 85.65625 C-46.05382107 85.63791943 -44.68199346 85.58425206 -43.3125 85.5 C-42.59715088 85.47663574 -41.88180176 85.45327148 -41.14477539 85.42919922 C-35.9334096 85.20341474 -31.00030289 84.5164853 -26 83 C-25.3090625 82.80921875 -24.618125 82.6184375 -23.90625 82.421875 C-22.26565762 81.96615489 -20.63185368 81.48608408 -19 81 C-19 80.34 -19 79.68 -19 79 C-17.39850114 78.32694982 -15.79368971 77.66177773 -14.1875 77 C-12.84751953 76.443125 -12.84751953 76.443125 -11.48046875 75.875 C-9 75 -9 75 -6 75 C-7.49196151 79.70128878 -11.28016932 81.31861448 -15.3125 83.625 C-16.30926758 84.21667969 -16.30926758 84.21667969 -17.32617188 84.8203125 C-20.80708339 86.85859105 -24.21122973 88.59050518 -28 90 C-29.08796875 90.48984375 -30.1759375 90.9796875 -31.296875 91.484375 C-40.96963527 95.63581914 -52.61906028 98.59523493 -63 96 C-67.30170612 94.20762245 -68.91014507 92.10360869 -71 88 C-72.06418773 80.11585651 -71.60526588 69.21053176 -68 62 C-67.34 62 -66.68 62 -66 62 C-65.9175 61.236875 -65.835 60.47375 -65.75 59.6875 C-64.71222135 54.5850883 -62.85712968 49.8544506 -61 45 C-60.34 45 -59.68 45 -59 45 C-58.82984375 44.41992188 -58.6596875 43.83984375 -58.484375 43.2421875 C-56.92620928 38.2195895 -55.2852928 34.1331103 -52 30 C-51.34 30 -50.68 30 -50 30 C-49.89816406 29.41863281 -49.79632812 28.83726562 -49.69140625 28.23828125 C-46.96234655 19.40352867 -35.51264256 11.52318375 -27.8984375 6.93359375 C-25.31835472 5.66478761 -22.85224025 5.21391802 -20 5 C-20 4.34 -20 3.68 -20 3 C-13.16673505 0.85422708 -7.18249035 -0.57003892 0 0 Z " fill="#050708" transform="translate(761,546)"/>
<path d="M0 0 C1.08544853 -0.00503792 1.08544853 -0.00503792 2.19282532 -0.01017761 C4.59829399 -0.01971864 7.00369324 -0.02163259 9.40917969 -0.02270508 C11.07729115 -0.02591656 12.74540232 -0.02928055 14.41351318 -0.03279114 C17.91744642 -0.03879105 21.42135496 -0.04063027 24.92529297 -0.04003906 C29.41221177 -0.03993764 33.89897163 -0.05356552 38.38585281 -0.07081127 C41.8345614 -0.08194141 45.28323177 -0.08395792 48.73195648 -0.08342934 C50.38573502 -0.08460886 52.03951457 -0.08902909 53.69327545 -0.0967617 C56.01047289 -0.10657773 58.3273281 -0.10367678 60.64453125 -0.09765625 C61.96277893 -0.09908127 63.28102661 -0.10050629 64.63922119 -0.10197449 C67.94538959 0.1355184 70.16432764 0.60561369 73.08105469 2.14526367 C74.39355469 4.27026367 74.39355469 4.27026367 75.08105469 6.14526367 C75.98855469 6.04213867 76.89605469 5.93901367 77.83105469 5.83276367 C81.08105469 6.14526367 81.08105469 6.14526367 83.33105469 8.33276367 C87.24940486 14.63011216 87.24940486 14.63011216 86.83105469 18.39526367 C86.08105469 20.14526367 86.08105469 20.14526367 84.08105469 21.14526367 C81.74806809 21.18548758 79.41398803 21.18846614 77.08105469 21.14526367 C74.08105469 15.52026367 74.08105469 15.52026367 74.08105469 12.14526367 C62.50183849 12.22981078 50.9227579 12.32474972 39.34373569 12.43279076 C33.96656921 12.48264077 28.58942131 12.52897157 23.2121582 12.56713867 C18.01844989 12.60413442 12.82490138 12.65053262 7.63133049 12.70332718 C5.65433506 12.7217954 3.67730547 12.736931 1.70025826 12.74860764 C-1.07849204 12.76560028 -3.85688238 12.79466559 -6.63549805 12.82641602 C-7.44470703 12.8285762 -8.25391602 12.83073639 -9.08764648 12.83296204 C-13.89285948 12.90266021 -18.26953024 13.5113363 -22.93352985 14.68042088 C-25.85601309 15.36465816 -28.75593675 15.55988369 -31.74707031 15.74291992 C-33.56464844 15.86183594 -33.56464844 15.86183594 -35.41894531 15.9831543 C-37.27519531 16.09433594 -37.27519531 16.09433594 -39.16894531 16.20776367 C-41.65350291 16.36240949 -44.1378885 16.51985048 -46.62207031 16.68041992 C-47.71165039 16.74624268 -48.80123047 16.81206543 -49.92382812 16.87988281 C-52.66387075 17.12266292 -55.2268678 17.6024484 -57.91894531 18.14526367 C-59.90728418 18.33003963 -61.89877182 18.48258005 -63.89160156 18.61010742 C-65.6134668 18.72708984 -65.6134668 18.72708984 -67.37011719 18.84643555 C-69.75018852 19.00218927 -72.13039558 19.15588447 -74.51074219 19.30737305 C-80.11091827 19.6911177 -85.58064317 20.197165 -91.10644531 21.19995117 C-96.73545862 22.20231424 -102.14951829 22.41231731 -107.85644531 22.33276367 C-108.76201172 22.33211914 -109.66757813 22.33147461 -110.60058594 22.33081055 C-114.82447734 22.30287886 -118.80404159 22.21909032 -122.91894531 21.14526367 C-122.66894531 18.77026367 -122.66894531 18.77026367 -121.91894531 16.14526367 C-114.97596947 11.82314626 -105.66908924 12.00490288 -97.73144531 11.33276367 C-88.89254555 10.57865119 -80.22605774 9.24554447 -71.48144531 7.77026367 C-55.31825575 5.05140412 -39.07109672 3.68711109 -22.73950195 2.40161133 C-21.76356079 2.32377411 -20.78761963 2.24593689 -19.78210449 2.16574097 C-17.93123165 2.01939762 -16.07999597 1.87755648 -14.22839355 1.74075317 C-9.02158 1.33336645 -5.29247185 0.01534056 0 0 Z " fill="#5F3439" transform="translate(192.9189453125,476.854736328125)"/>
<path d="M0 0 C5.52248244 8.28372367 4.31638349 22.69797767 4.72579956 32.31845093 C4.81070006 34.27110273 4.91019783 36.22310243 5.01000977 38.17504883 C5.25945228 45.13001305 4.84584197 50.98556718 2.74584961 57.63012695 C1.78078561 60.69653487 1.30751168 63.75657318 0.875 66.9375 C0.40175656 70.35398554 -0.08579851 73.67198581 -1 77 C-1.66 77 -2.32 77 -3 77 C-3.10022461 77.64437012 -3.20044922 78.28874023 -3.30371094 78.95263672 C-3.77371705 81.92880919 -4.26174874 84.90176843 -4.75 87.875 C-4.98589844 89.39480469 -4.98589844 89.39480469 -5.2265625 90.9453125 C-6.20572325 96.82027698 -7.65247842 101.9153998 -9.99658203 107.37841797 C-11.94270076 112.46294908 -12.92837707 117.81204677 -14.0625 123.125 C-15.61438077 130.3286906 -17.2393677 137.16201105 -20 144 C-20.2475 145.11632812 -20.495 146.23265625 -20.75 147.3828125 C-22 150 -22 150 -25.1875 151.2421875 C-27.0746875 151.55542969 -27.0746875 151.55542969 -29 151.875 C-30.8871875 152.21144531 -30.8871875 152.21144531 -32.8125 152.5546875 C-36 153 -36 153 -38 153 C-37.7126705 151.16598192 -37.41988417 149.33281856 -37.125 147.5 C-36.96257812 146.4790625 -36.80015625 145.458125 -36.6328125 144.40625 C-35.52119513 138.42272935 -33.89202232 132.57799373 -32.30029297 126.70874023 C-29.83226879 117.56131835 -27.70353368 108.37246416 -25.7878418 99.09350586 C-24.28283516 91.90985377 -22.38860167 84.92075766 -19.9375 78 C-18.87575621 74.60241989 -18.23445274 71.21152847 -17.56640625 67.71875 C-16.60114514 63.08549668 -15.29592224 58.54981396 -14 54 C-13.67 52.824375 -13.34 51.64875 -13 50.4375 C-12.46548363 48.60009999 -11.92152992 46.76458976 -11.31640625 44.94921875 C-9.08721925 38.07685468 -7.89103374 31.13781988 -6.6953125 24.03125 C-5.95440802 19.64705491 -5.02276043 15.32706334 -4 11 C-3.34 11 -2.68 11 -2 11 C-1.855625 9.741875 -1.71125 8.48375 -1.5625 7.1875 C-1.26251314 4.57332877 -0.84186703 2.52560108 0 0 Z " fill="#5F3238" transform="translate(383,321)"/>
<path d="M0 0 C-0.11509661 1.41750563 -0.24253658 2.83401169 -0.375 4.25 C-0.44460938 5.03890625 -0.51421875 5.8278125 -0.5859375 6.640625 C-1.01858517 9.10590039 -1.86504858 10.78750716 -3 13 C-3.27252552 14.3461109 -3.49741713 15.70229662 -3.6875 17.0625 C-4.65471966 22.29009199 -6.42170711 27.05339029 -8.3125 32 C-11.82078473 41.18950183 -14.5328794 50.48396342 -17 60 C-17.66 60 -18.32 60 -19 60 C-19.09539062 60.92554688 -19.19078125 61.85109375 -19.2890625 62.8046875 C-20.04578891 68.08053093 -21.74465241 73.06553289 -23.375 78.125 C-23.67921875 79.10082031 -23.9834375 80.07664062 -24.296875 81.08203125 C-25.78601638 85.7467348 -27.23857447 89.90988856 -30 94 C-30.69822617 95.65369357 -31.37498605 97.31727014 -32 99 C-33.65 99 -35.3 99 -37 99 C-40.91083499 91.93179365 -43.72876813 86.13695602 -44 78 C-44.66 78 -45.32 78 -46 78 C-49.44419134 67.62642369 -49.44419134 67.62642369 -49 62 C-49.66 62 -50.32 62 -51 62 C-53.34927545 54.68629859 -55.69142988 47.3703615 -58.02539062 40.05175781 C-58.82053912 37.56193912 -59.62030543 35.07369172 -60.421875 32.5859375 C-60.77765625 31.46445312 -61.1334375 30.34296875 -61.5 29.1875 C-61.7990625 28.25292969 -62.098125 27.31835938 -62.40625 26.35546875 C-63 24 -63 24 -63 20 C-58.9472484 19.01751476 -55.16138263 18.91840426 -51 19 C-48.2241982 25.56098608 -46.9973446 31.95992045 -46 39 C-45.34 39 -44.68 39 -44 39 C-42.52004665 42.48484741 -41.47756286 45.87641938 -40.625 49.5625 C-39.30435556 55.02793623 -37.62816194 60.29715582 -35.76953125 65.6015625 C-35 68 -35 68 -35 70 C-34.34 70 -33.68 70 -33 70 C-33.061875 69.030625 -33.12375 68.06125 -33.1875 67.0625 C-33.17998343 63.27415012 -32.20681005 60.31872764 -30.921875 56.78515625 C-29.5358302 52.5976565 -28.54539557 48.31392934 -27.53417969 44.02368164 C-26.68576088 40.49606865 -25.71381751 37.07188545 -24.53125 33.640625 C-22.5694685 27.89822438 -21.24952552 22.01889838 -19.89453125 16.109375 C-17.78589014 7.29874719 -17.78589014 7.29874719 -15 4 C-12.1875 2.63671875 -12.1875 2.63671875 -9 1.6875 C-7.948125 1.36136719 -6.89625 1.03523437 -5.8125 0.69921875 C-3 0 -3 0 0 0 Z " fill="#5F3439" transform="translate(348,519)"/>
<path d="M0 0 C2.89478151 3.61847689 2.37893227 5.95281278 2 10.5 C1.34 10.5 0.68 10.5 0 10.5 C-0.03996094 11.08265625 -0.07992187 11.6653125 -0.12109375 12.265625 C-1.33079959 21.76405607 -6.62867825 28.74616566 -13.79296875 34.8984375 C-18.63474473 38.49136919 -23.6821059 41.66378981 -29 44.5 C-28.93085921 51.24320491 -28.93085921 51.24320491 -25.9375 57 C-25.298125 57.495 -24.65875 57.99 -24 58.5 C-24 59.16 -24 59.82 -24 60.5 C-15.60456776 60.63637038 -15.60456776 60.63637038 -8.1875 57.4375 C-7.465625 56.468125 -6.74375 55.49875 -6 54.5 C-1.66506514 49.80839329 2.08590343 46.11320546 8 43.5 C8.495 42.96375 8.99 42.4275 9.5 41.875 C11.7375647 39.82389903 14.0584698 39.82683669 17 39.5 C12.44886238 52.35806842 -4.38917088 61.55235012 -15.9921875 67.640625 C-22.9346656 70.61211368 -30.97266365 71.92141283 -38.1875 69.375 C-41.46125181 67.19249879 -43.94961744 64.84806323 -46 61.5 C-48.58463702 48.31690728 -44.82219478 31.50549287 -38.1015625 19.96875 C-30.66404596 9.26813331 -14.2147573 -7.10737865 0 0 Z " fill="#060809" transform="translate(855,540.5)"/>
<path d="M0 0 C1.05960938 0.01804687 2.11921875 0.03609375 3.2109375 0.0546875 C4.00757813 0.07789063 4.80421875 0.10109375 5.625 0.125 C6.615 2.105 6.615 2.105 7.625 4.125 C5.74980947 7.73171728 3.68373902 10.43405499 0.625 13.125 C-2.71240234 14.14013672 -2.71240234 14.14013672 -6.5859375 14.7421875 C-7.64359818 14.91442085 -7.64359818 14.91442085 -8.72262573 15.09013367 C-10.20565101 15.33016473 -11.68997226 15.56231028 -13.17541504 15.78689575 C-15.24212106 16.10457481 -17.29967441 16.45460361 -19.35839844 16.82006836 C-44.25353764 21.19689553 -69.36747239 23.31244929 -94.54579926 25.23998642 C-97.08697934 25.4345884 -99.62799387 25.63125672 -102.16900635 25.82803345 C-123.23166854 27.44960954 -144.25345101 28.64147115 -165.375 29.125 C-165.06701674 27.64488629 -164.753482 26.16592675 -164.4375 24.6875 C-164.17646484 23.45193359 -164.17646484 23.45193359 -163.91015625 22.19140625 C-163.375 20.125 -163.375 20.125 -162.375 19.125 C-141.05546173 14.86109235 -119.1290471 14.44869278 -97.47192383 13.37744141 C-63.76069171 11.8656647 -63.76069171 11.8656647 -30.66796875 5.65625 C-26.54029573 4.69992371 -22.35766553 3.99159384 -18.18383789 3.265625 C-15.11061631 2.71454909 -12.23076778 2.07437303 -9.28125 1.0390625 C-6.03318709 0.01749433 -3.39435683 -0.07543015 0 0 Z " fill="#5F3439" transform="translate(902.375,481.875)"/>
<path d="M0 0 C0.02689216 1.47906892 0.04634621 2.95827483 0.0625 4.4375 C0.07410156 5.26121094 0.08570313 6.08492187 0.09765625 6.93359375 C0 9 0 9 -1 10 C-5.4900738 11.00536838 -10.03314991 11.75522193 -14.5625 12.5625 C-15.82642578 12.79646484 -17.09035156 13.03042969 -18.39257812 13.27148438 C-24.68246291 14.39925776 -30.60792179 15.3143645 -37 15 C-36.97679687 15.6084375 -36.95359375 16.216875 -36.9296875 16.84375 C-36.65092542 30.38362231 -38.85226044 43.16331386 -42.96875 56.02734375 C-44.49968281 61.41107563 -45.17279217 66.97451021 -46 72.5 C-48.20171124 87.20674305 -48.20171124 87.20674305 -50 92 C-54.43880721 95.22031111 -58.71059205 96.70463479 -64 98 C-64 98.66 -64 99.32 -64 100 C-64.99 100 -65.98 100 -67 100 C-66.40829071 91.33476811 -65.30988781 82.82378676 -63.9375 74.25 C-63.75123047 73.0640625 -63.56496094 71.878125 -63.37304688 70.65625 C-62.9191931 67.77020551 -62.4614584 64.88483655 -62 62 C-61.34 62 -60.68 62 -60 62 C-59.96261719 61.16984375 -59.92523437 60.3396875 -59.88671875 59.484375 C-59.38448103 50.06987967 -58.5605667 40.69353423 -57.625 31.3125 C-57.4542395 29.46833496 -57.4542395 29.46833496 -57.2800293 27.58691406 C-57.15926025 26.41999023 -57.03849121 25.25306641 -56.9140625 24.05078125 C-56.8104541 23.00575439 -56.7068457 21.96072754 -56.60009766 20.8840332 C-55.73536037 16.72815789 -53.97921091 13.97921091 -51 11 C-49.68 11 -48.36 11 -47 11 C-46.7834375 10.0409375 -46.7834375 10.0409375 -46.5625 9.0625 C-46 7 -46 7 -45 6 C-42.81376174 5.8883623 -40.62568459 5.81284017 -38.4375 5.75 C-29.81074199 5.37966193 -21.56965543 3.62287706 -13.16381836 1.72753906 C-12.17776611 1.50678711 -11.19171387 1.28603516 -10.17578125 1.05859375 C-8.85960815 0.75393188 -8.85960815 0.75393188 -7.5168457 0.44311523 C-4.95813237 -0.0073712 -2.59236326 -0.07880319 0 0 Z " fill="#5F3237" transform="translate(662,512)"/>
<path d="M0 0 C1.20076172 0.06960937 1.20076172 0.06960937 2.42578125 0.140625 C3.23402344 0.17671875 4.04226563 0.2128125 4.875 0.25 C5.79732422 0.31960937 5.79732422 0.31960937 6.73828125 0.390625 C6.99222656 1.03128906 7.24617188 1.67195312 7.5078125 2.33203125 C7.85199219 3.19699219 8.19617188 4.06195313 8.55078125 4.953125 C8.88722656 5.80003906 9.22367187 6.64695313 9.5703125 7.51953125 C10.39499676 9.54676514 11.28461429 11.54815911 12.21875 13.52734375 C14.30075729 18.37658424 15.21127166 23.48543959 16.23828125 28.640625 C16.45186279 29.68734375 16.66544434 30.7340625 16.88549805 31.8125 C18.78810521 41.29604362 20.35003607 50.81963381 21.73828125 60.390625 C18.11854723 61.70689192 15.64260994 62.390625 11.73828125 62.390625 C10.22392042 58.07798872 9.0758184 53.79565855 8.11328125 49.328125 C7.72269531 47.54728516 7.72269531 47.54728516 7.32421875 45.73046875 C6.81892127 42.85027309 6.61723037 40.30134853 6.73828125 37.390625 C6.07828125 37.390625 5.41828125 37.390625 4.73828125 37.390625 C4.47273438 38.47601563 4.2071875 39.56140625 3.93359375 40.6796875 C3.57695043 42.12503147 3.22017245 43.57034222 2.86328125 45.015625 C2.60224609 46.08490234 2.60224609 46.08490234 2.3359375 47.17578125 C1.5494736 50.35076515 0.72025592 53.44417084 -0.32421875 56.546875 C-1.28068192 59.44814662 -1.87299556 62.25667489 -2.38671875 65.265625 C-2.55429687 66.23242188 -2.721875 67.19921875 -2.89453125 68.1953125 C-3.01570313 68.91976562 -3.136875 69.64421875 -3.26171875 70.390625 C-5.32134727 71.06611078 -7.38456197 71.73066812 -9.44921875 72.390625 C-11.17205078 72.9475 -11.17205078 72.9475 -12.9296875 73.515625 C-15.90492687 74.29693053 -18.21455771 74.57425806 -21.26171875 74.390625 C-20.75508914 67.04449564 -18.96661008 60.43642971 -16.85742188 53.39746094 C-12.32504624 38.12855615 -7.83922009 22.64285476 -5.8515625 6.80859375 C-4.96160915 3.16037437 -3.89794418 0.67322007 0 0 Z " fill="#5F3237" transform="translate(424.26171875,170.609375)"/>
<path d="M0 0 C2.56505296 2.56505296 2.44739547 3.98807484 2.8515625 7.55859375 C2.98046875 8.66654297 3.109375 9.77449219 3.2421875 10.91601562 C3.36851562 12.07810547 3.49484375 13.24019531 3.625 14.4375 C3.7590625 15.59572266 3.893125 16.75394531 4.03125 17.94726562 C5 26.45348374 5 26.45348374 5 30 C5.66 30 6.32 30 7 30 C8.01674937 36.12023894 9.00153089 42.17391014 9.3125 48.375 C9.77090655 54.68233458 11.10001525 60.76943658 12.4375 66.9375 C12.65510986 67.94538574 12.87271973 68.95327148 13.09692383 69.99169922 C14.26743958 75.34650648 14.26743958 75.34650648 16.02026367 80.52783203 C16.97344448 82.93299248 17.48917889 85.10950384 17.9296875 87.65234375 C18.60371969 91.2236591 19.44227708 94.65436293 20.5078125 98.12890625 C27.94351446 122.70809497 24.82119618 146.91186273 22 172 C15.19530121 165.19530121 14.20566511 151.26953282 13.1875 142.1875 C11.96736601 132.13191295 9.22904065 122.41998214 6.63256836 112.64624023 C5.43629798 107.64185016 4.84452051 102.72104949 4.53515625 97.58984375 C4.45837646 96.36378418 4.38159668 95.13772461 4.30249023 93.87451172 C4.18369507 91.92569092 4.18369507 91.92569092 4.0625 89.9375 C3.50740423 81.06475973 2.87591753 72.21699813 1.9375 63.375 C-0.21834923 42.34247667 -0.18111651 21.12097166 0 0 Z " fill="#5F3338" transform="translate(475,386)"/>
<path d="M0 0 C5.65632957 8.48449435 5.00671448 18.21858254 3.31640625 27.92578125 C2.61920341 30.97812859 1.8654609 33.99149308 1 37 C0.34 37 -0.32 37 -1 37 C-1.185625 37.86431641 -1.185625 37.86431641 -1.375 38.74609375 C-2.01484803 41.0535457 -2.89027909 42.94505458 -4 45.0625 C-5.21973475 47.39883016 -6.16101823 49.4830547 -7 52 C-6.17757812 52.06058594 -5.35515625 52.12117188 -4.5078125 52.18359375 C2.339219 52.69751644 9.1719587 53.27558027 16 54 C14.52440331 58.42679007 12.09942632 58.91432696 8 61 C7.34 61 6.68 61 6 61 C5.67 61.99 5.34 62.98 5 64 C4.40574219 63.95810547 3.81148437 63.91621094 3.19921875 63.87304688 C-8.15564209 62.71529289 -8.15564209 62.71529289 -18.7890625 65.5703125 C-20.65508429 67.5953316 -20.65508429 67.5953316 -22.25 69.8203125 C-25.47014184 73.83111417 -30.24264787 76.1902868 -35 78 C-38.3359375 78.15625 -38.3359375 78.15625 -41 78 C-41.54891889 74.86332065 -41.47911793 72.75935672 -39.7578125 70.03125 C-35.58141175 65.02726753 -30.74801351 61.0905816 -25 58 C-24.34 58 -23.68 58 -23 58 C-22.7525 57.360625 -22.505 56.72125 -22.25 56.0625 C-21.26465565 53.64840635 -20.21732791 51.30277697 -19.125 48.9375 C-14.70559407 38.88584366 -11.94738887 30.13006853 -13 19 C-13.33 18.67 -13.66 18.34 -14 18 C-16.44146208 18.94945748 -18.80817295 19.8984445 -21.125 21.125 C-23 22 -23 22 -26 22 C-25.97340763 16.13638204 -25.22478483 11.93558674 -21.0703125 7.640625 C-14.95348068 2.79332431 -7.92812042 -1.08110733 0 0 Z " fill="#5D0D0E" transform="translate(764,201)"/>
<path d="M0 0 C0 5.94 0 11.88 0 18 C1.381875 16.4325 2.76375 14.865 4.1875 13.25 C10.50344362 6.08564604 16.18594778 1.57187399 25.8125 0.625 C29 1 29 1 30.9375 2.5 C31.288125 2.995 31.63875 3.49 32 4 C30.52440331 8.42679007 28.09942632 8.91432696 24 11 C23.34 11 22.68 11 22 11 C22 11.66 22 12.32 22 13 C20.80375 13.12375 19.6075 13.2475 18.375 13.375 C15.35072302 14.10962047 14.20589238 14.74979601 12.203125 17.18359375 C9.72062704 21.31904208 7.72935046 25.49884017 6 30 C5.34 30 4.68 30 4 30 C3.72027344 30.86753906 3.44054687 31.73507812 3.15234375 32.62890625 C1.36344812 37.86218396 -0.84646464 42.90857454 -3 48 C-3.7425 49.8253125 -3.7425 49.8253125 -4.5 51.6875 C-4.995 52.780625 -5.49 53.87375 -6 55 C-6.33386719 55.74121094 -6.66773438 56.48242188 -7.01171875 57.24609375 C-9.96676174 63.22490166 -13.15000216 65.95261619 -19 69 C-20.485 69.99 -20.485 69.99 -22 71 C-23.32 71 -24.64 71 -26 71 C-25.71465784 69.12402711 -25.42141506 67.2492552 -25.125 65.375 C-24.96257813 64.33085938 -24.80015625 63.28671875 -24.6328125 62.2109375 C-24 59 -24 59 -23.02514648 56.20385742 C-21.98495851 52.95299132 -21.42753829 49.9061762 -20.96484375 46.52734375 C-20.79533203 45.29693359 -20.62582031 44.06652344 -20.45117188 42.79882812 C-20.28166016 41.52458984 -20.11214844 40.25035156 -19.9375 38.9375 C-19.76412109 37.69033203 -19.59074219 36.44316406 -19.41210938 35.15820312 C-18.4454896 28.03632641 -17.7307615 20.99040141 -17.44360352 13.80688477 C-16.80828433 9.78692619 -15.25475564 7.02029412 -12.09765625 4.453125 C-11.42605469 4.05609375 -10.75445313 3.6590625 -10.0625 3.25 C-9.39347656 2.84265625 -8.72445312 2.4353125 -8.03515625 2.015625 C-5.35179157 0.67651786 -2.99936387 0 0 0 Z " fill="#040606" transform="translate(783,550)"/>
<path d="M0 0 C1.14662109 -0.03867188 1.14662109 -0.03867188 2.31640625 -0.078125 C4.4375 0.25 4.4375 0.25 6.1875 1.50390625 C8.53135659 4.77798092 8.02445557 8.40698564 7.4375 12.25 C6.33639531 15.13861229 5.00119996 17.56239069 3.4375 20.25 C4.654375 20.20875 5.87125 20.1675 7.125 20.125 C10.71157356 20.15662763 13.33952624 20.27073899 16.4375 22.25 C19.99025909 26.85898477 21.28310727 30.80153749 21 36.640625 C18.62060577 47.67837047 7.49564274 54.8976574 -1.2890625 60.77734375 C-7.86638536 65.02173754 -13.50325834 68.3913902 -21.5625 68.25 C-20.5625 65.25 -20.5625 65.25 -17.9375 63.70703125 C-16.82375 63.16433594 -15.71 62.62164062 -14.5625 62.0625 C-7.37987182 58.34080817 -1.09771169 54.05281753 3.4375 47.25 C3.75556878 44.41334671 3.75556878 44.41334671 3.6875 41.3125 C3.69265625 40.27222656 3.6978125 39.23195312 3.703125 38.16015625 C3.44379936 35.31901505 2.90269702 33.66292366 1.4375 31.25 C-4.91469042 31.79881057 -11.24123638 32.41511613 -17.5625 33.25 C-16.95248926 29.84919013 -15.69381396 27.81988255 -13.5625 25.125 C-10.78632485 21.58804609 -9.4266421 19.67319006 -9.5 15.125 C-9.520625 13.84625 -9.54125 12.5675 -9.5625 11.25 C-13.30293749 11.5800386 -14.63262003 12.30989419 -17.5625 14.8125 C-20.5625 17.25 -20.5625 17.25 -23.4375 17.5625 C-24.13875 17.459375 -24.84 17.35625 -25.5625 17.25 C-24.72214186 11.84093424 -20.6877712 9.43479486 -16.5625 6.25 C-11.08167404 2.38873342 -6.79504982 0.13797055 0 0 Z " fill="#5D0C0C" transform="translate(800.5625,197.75)"/>
<path d="M0 0 C1 1 1 1 1.3125 3.9375 C1.25035105 8.91977398 -0.53980598 13.70494555 -3 18 C-3.99 18.33 -4.98 18.66 -6 19 C-7.28696354 20.51524975 -8.50812186 22.08708626 -9.6875 23.6875 C-13.33780332 28.38458148 -17.0483771 31.75250706 -22 35 C-23.2684375 35.928125 -23.2684375 35.928125 -24.5625 36.875 C-27.79592854 38.36735163 -30.48555946 38.2067318 -34 38 C-29.68337742 25.30405123 -23.19873319 9.43975113 -11.0625 2.375 C-9.5465625 1.694375 -9.5465625 1.694375 -8 1 C-5.26752652 -0.36623674 -3.01801098 -0.128426 0 0 Z " fill="#5B7380" transform="translate(747,555)"/>
<path d="M0 0 C0.0543965 2.37531394 0.09385864 4.74935883 0.125 7.125 C0.14175781 7.79015625 0.15851562 8.4553125 0.17578125 9.140625 C0.21836145 13.48380576 -0.22612751 17.02077253 -2 21 C-4.625 22.375 -4.625 22.375 -7 23 C-7 23.66 -7 24.32 -7 25 C-10.16609462 26.87620422 -12.35832401 27.09662822 -16 27 C-17.47353445 9.0405117 -17.47353445 9.0405117 -14.1015625 4.37109375 C-11.74937334 2.85244735 -9.66704458 1.83373932 -7 1 C-4 0 -4 0 0 0 Z " fill="#5D0E0E" transform="translate(726,195)"/>
<path d="M0 0 C0.33 0 0.66 0 1 0 C1.03063118 3.8958146 1.04730706 7.79159712 1.0625 11.6875 C1.07087891 12.73228516 1.07925781 13.77707031 1.08789062 14.85351562 C1.11191326 23.23741513 0.84806926 31.59184239 0.53125 39.96875 C-0.12799285 57.71549744 -0.32760557 75.46519456 -0.53222656 93.22198486 C-0.58356234 97.61481608 -0.63864727 102.00760039 -0.69335938 106.40039062 C-0.79911585 114.93355348 -0.90092089 123.46675701 -1 132 C-1.33 132 -1.66 132 -2 132 C-2.495 84.48 -2.495 84.48 -3 36 C-3.33 38.64 -3.66 41.28 -4 44 C-4.33 44 -4.66 44 -5 44 C-5 31.13 -5 18.26 -5 5 C-3 8 -3 8 -2 15 C-1.34 10.05 -0.68 5.1 0 0 Z " fill="#4A5C65" transform="translate(504,493)"/>
<path d="M0 0 C2.5625 0.4375 2.5625 0.4375 4.375 2.25 C7.79118673 11.41976438 4.80697063 21.28593822 2.5625 30.4375 C1.5725 30.4375 0.5825 30.4375 -0.4375 30.4375 C-1.11586243 27.46057914 -1.78034652 24.48161189 -2.4375 21.5 C-2.62828125 20.66919922 -2.8190625 19.83839844 -3.015625 18.98242188 C-4.19785075 13.55685013 -5.25283665 7.9942291 -4.4375 2.4375 C-2.4375 0.4375 -2.4375 0.4375 0 0 Z " fill="#5D1819" transform="translate(428.4375,172.5625)"/>
<path d="M0 0 C1.32 0.33 2.64 0.66 4 1 C4.20674944 6.78898419 3.59162079 11.42932723 2 17 C1.34 17 0.68 17 0 17 C-0.20625 18.03125 -0.4125 19.0625 -0.625 20.125 C-1.90941673 24.69491751 -4.43344171 26.95356479 -8 30 C-8.66 30 -9.32 30 -10 30 C-10.48653776 19.19886175 -6.21754617 8.70456464 0 0 Z " fill="#566D78" transform="translate(836,549)"/>
<path d="M0 0 C0.33 0 0.66 0 1 0 C1.63639444 10.83459451 2.11668276 21.66783907 2.46484375 32.515625 C2.50364655 33.70933716 2.54244934 34.90304932 2.58242798 36.13293457 C2.74204167 41.07369817 2.90013656 46.01448302 3.04956055 50.95556641 C3.46309625 64.50984943 3.99646188 78.00080023 5.33177185 91.49993896 C6.07038148 99.02460441 6.21489498 106.44285977 6 114 C5.67 114 5.34 114 5 114 C4.94465088 113.3387915 4.88930176 112.67758301 4.83227539 111.99633789 C4.58034285 109.0179762 4.32151498 106.04025375 4.0625 103.0625 C3.97548828 102.02158203 3.88847656 100.98066406 3.79882812 99.90820312 C3.71181641 98.91884766 3.62480469 97.92949219 3.53515625 96.91015625 C3.456604 95.99371338 3.37805176 95.07727051 3.29711914 94.13305664 C3.22129249 92.02036174 3.22129249 92.02036174 2 91 C1.76674795 88.56918732 1.59768462 86.16375869 1.47265625 83.7265625 C1.43133072 82.96953033 1.39000519 82.21249817 1.34742737 81.43252563 C0.86345101 72.08539418 0.64155403 62.73167738 0.4375 53.375 C0.41632111 52.4493222 0.39514221 51.52364441 0.37332153 50.56991577 C-0.00937914 33.71098209 -0.12369726 16.86279078 0 0 Z " fill="#2F3C42" transform="translate(464,286)"/>
<path d="M0 0 C0.66 0 1.32 0 2 0 C3.52939753 8.54814104 4.28074656 16.74822275 4.1953125 25.42578125 C4.19106766 27.09618721 4.19106766 27.09618721 4.18673706 28.80033875 C4.17567702 32.30450894 4.15060022 35.80840905 4.125 39.3125 C4.11495184 41.71028273 4.10582923 44.10806952 4.09765625 46.50585938 C4.07578441 52.33732938 4.04245186 58.16864539 4 64 C3.34 64 2.68 64 2 64 C2 70.27 2 76.54 2 83 C1.67 83 1.34 83 1 83 C0.71105222 79.0350371 0.42640631 75.06978953 0.14550781 71.10424805 C0.00285376 69.10254363 -0.14307106 67.10107316 -0.2890625 65.09960938 C-0.76295127 58.38054364 -1.11829991 51.73570123 -1 45 C-0.34 46.32 0.32 47.64 1 49 C1.02487594 44.71330142 1.04294275 40.42664205 1.05493164 36.13989258 C1.05993417 34.68415596 1.0667383 33.22842429 1.07543945 31.77270508 C1.087685 29.67007212 1.09326923 27.56750609 1.09765625 25.46484375 C1.10551147 23.57173462 1.10551147 23.57173462 1.11352539 21.64038086 C1.00065567 18.02102523 0.55402201 14.57517328 0 11 C-0.06252492 9.02171151 -0.08693365 7.04162549 -0.0625 5.0625 C-0.05347656 4.10472656 -0.04445313 3.14695312 -0.03515625 2.16015625 C-0.02355469 1.44730469 -0.01195312 0.73445313 0 0 Z " fill="#566671" transform="translate(472,366)"/>
<path d="M0 0 C1.67542976 0.28604898 3.34385343 0.61781233 5 1 C5.01030746 1.56058105 5.02061493 2.12116211 5.03123474 2.69873047 C5.14161042 8.67145269 5.25594247 14.6440909 5.37231445 20.61669922 C5.41494326 22.82924599 5.45664806 25.04181082 5.49731445 27.25439453 C5.7142187 39.02078041 6.00070256 50.77444079 6.53125 62.53125 C6.96517317 72.19548324 7.1245336 81.8274398 7.0625 91.5 C7.05744984 92.93229001 7.05289344 94.36458185 7.04882812 95.796875 C7.03815769 99.19795676 7.02111032 102.59896494 7 106 C6.67 106 6.34 106 6 106 C5.15794769 94.15298008 4.73104352 82.32918304 4.46484375 70.45703125 C4.42168585 68.6309907 4.37826955 66.80495624 4.33460999 64.97892761 C4.22170308 60.22506772 4.11258022 55.47112829 4.00421143 50.71716309 C3.91486923 46.82714021 3.8227413 42.93718555 3.73049068 39.04723072 C3.62015979 34.39218639 3.51108532 29.73711295 3.40234375 25.08203125 C3.38171309 24.20054728 3.36108242 23.3190633 3.33982658 22.41086769 C3.28178407 19.91821388 3.22459751 17.42554207 3.16772461 14.93286133 C3.15059418 14.19986313 3.13346375 13.46686493 3.11581421 12.71165466 C3.03527405 9.14031161 2.98131552 5.57227154 3 2 C1.68 1.67 0.36 1.34 -1 1 C-0.67 0.67 -0.34 0.34 0 0 Z " fill="#2F3C42" transform="translate(388,298)"/>
<path d="M0 0 C0.66 0 1.32 0 2 0 C4.77709577 6.69478445 5.64340415 12.76170332 5 20 C4.67 20.66 4.34 21.32 4 22 C2.02 22 0.04 22 -2 22 C-5.35604144 15.28791713 -2.09121256 6.65951618 0 0 Z " fill="#5D191B" transform="translate(313,593)"/>
<path d="M0 0 C0.99 0.495 0.99 0.495 2 1 C2 1.66 2 2.32 2 3 C3.98 3 5.96 3 8 3 C5.35261084 4.4606285 4.10551666 5 1 5 C0.67 3.35 0.34 1.7 0 0 Z M0 5 C0.99 5.495 0.99 5.495 2 6 C2 7.98 2 9.96 2 12 C1.505 10.515 1.505 10.515 1 9 C-27.38 9 -55.76 9 -85 9 C-85 8.67 -85 8.34 -85 8 C-43.42 7.505 -43.42 7.505 -1 7 C-0.67 6.34 -0.34 5.68 0 5 Z " fill="#604A52" transform="translate(266,480)"/>
<path d="M0 0 C1.94246618 2.91369928 2.41191334 4.3024456 3 7.640625 C3.165 8.54683594 3.33 9.45304687 3.5 10.38671875 C3.665 11.33160156 3.83 12.27648437 4 13.25 C5.0703049 19.27882682 6.24245669 25.12518393 8 31 C8.58773289 33.38976854 9.15058841 35.78580278 9.6875 38.1875 C9.95949219 39.37730469 10.23148437 40.56710937 10.51171875 41.79296875 C10.95481799 44.70324456 11.00335868 46.28621779 10 49 C8.56214161 45.91887488 7.74490606 42.94592531 7.125 39.625 C6.29441721 35.20181706 5.19198007 30.90219041 4 26.5625 C1.58422898 17.68426319 -0.34846585 9.23434493 0 0 Z " fill="#615962" transform="translate(484,433)"/>
<path d="M0 0 C0 0.33 0 0.66 0 1 C-6.74153283 2.25841946 -13.13484138 3.26404456 -20 3 C-19.97679687 3.6084375 -19.95359375 4.216875 -19.9296875 4.84375 C-19.75431352 13.36191464 -20.81770051 21.58667237 -22 30 C-22.33 30 -22.66 30 -23 30 C-22.67 20.43 -22.34 10.86 -22 1 C-6.25 -0.125 -6.25 -0.125 0 0 Z " fill="#61565E" transform="translate(645,524)"/>
<path d="M0 0 C0 3.3 0 6.6 0 10 C-0.33 10 -0.66 10 -1 10 C-1.33 7.69 -1.66 5.38 -2 3 C-3.18078125 3.37253906 -4.3615625 3.74507812 -5.578125 4.12890625 C-7.13525381 4.60730125 -8.69255461 5.08513666 -10.25 5.5625 C-11.02730469 5.80935547 -11.80460937 6.05621094 -12.60546875 6.31054688 C-13.35957031 6.53935547 -14.11367188 6.76816406 -14.890625 7.00390625 C-15.58188477 7.21861572 -16.27314453 7.4333252 -16.98535156 7.65454102 C-19.28678704 8.0491764 -20.79616682 7.71084423 -23 7 C-20.56343315 5.85214624 -18.12580719 4.70664598 -15.6875 3.5625 C-14.99720703 3.23701172 -14.30691406 2.91152344 -13.59570312 2.57617188 C-5.33090208 -1.29670591 -5.33090208 -1.29670591 0 0 Z " fill="#242E32" transform="translate(462,233)"/>
<path d="M0 0 C-8.75668459 2.04595434 -17.41975331 3.37833652 -26.375 4.1875 C-27.28910645 4.27112793 -28.20321289 4.35475586 -29.14501953 4.44091797 C-34.78360786 4.91668345 -40.34186455 5.07490403 -46 5 C-42.96915091 1.96915091 -39.28859915 2.28032844 -35.1953125 1.89453125 C-34.31978729 1.80620529 -33.44426208 1.71787933 -32.54220581 1.62687683 C-30.68823008 1.4420076 -28.83380792 1.26157033 -26.97900391 1.08520508 C-24.14223892 0.81414721 -21.30754107 0.52632112 -18.47265625 0.23632812 C-16.67197404 0.05888791 -14.87119536 -0.1175766 -13.0703125 -0.29296875 C-12.22228058 -0.37935104 -11.37424866 -0.46573334 -10.5005188 -0.55473328 C-9.70644623 -0.62843643 -8.91237366 -0.70213959 -8.09423828 -0.77807617 C-7.05071701 -0.87894783 -7.05071701 -0.87894783 -5.9861145 -0.9818573 C-3.83122737 -1.0015417 -2.06019931 -0.60700016 0 0 Z " fill="#615C66" transform="translate(866,490)"/>
<path d="M0 0 C0.66 0 1.32 0 2 0 C4.02352735 10.11434822 4.09186978 19.58874524 3.625 29.8125 C3.56656839 31.29487738 3.50927035 32.77729989 3.453125 34.25976562 C3.3150985 37.84045709 3.16191369 41.42029952 3 45 C2.67 45 2.34 45 2 45 C1.97494385 44.21874756 1.9498877 43.43749512 1.92407227 42.63256836 C1.80749797 39.06740383 1.68505135 35.50246387 1.5625 31.9375 C1.52318359 30.70837891 1.48386719 29.47925781 1.44335938 28.21289062 C1.23935657 22.39096435 0.89862387 16.75119277 0 11 C-0.06252492 9.02171151 -0.08693365 7.04162549 -0.0625 5.0625 C-0.05347656 4.10472656 -0.04445313 3.14695312 -0.03515625 2.16015625 C-0.02355469 1.44730469 -0.01195312 0.73445313 0 0 Z " fill="#615F69" transform="translate(472,366)"/>
<path d="M0 0 C0.66 1.32 1.32 2.64 2 4 C2.66 4 3.32 4 4 4 C4.05422947 5.4370809 4.09289723 6.87475462 4.125 8.3125 C4.14820313 9.11300781 4.17140625 9.91351562 4.1953125 10.73828125 C4 13 4 13 2 16 C-2.34664637 19.45174858 -5.6740591 19.27081055 -11 19 C-11 18.67 -11 18.34 -11 18 C-9.906875 17.938125 -8.81375 17.87625 -7.6875 17.8125 C-3.94220202 17.39740136 -3.94220202 17.39740136 -2.3125 14.84375 C-0.83809518 11.64920622 -0.50490176 9.18921211 -0.3125 5.6875 C-0.24675781 4.61886719 -0.18101562 3.55023437 -0.11328125 2.44921875 C-0.07589844 1.64097656 -0.03851562 0.83273437 0 0 Z " fill="#5F3F45" transform="translate(575,848)"/>
<path d="M0 0 C1.65 0.33 3.3 0.66 5 1 C5 13.87 5 26.74 5 40 C4.67 40 4.34 40 4 40 C3.67 27.46 3.34 14.92 3 2 C1.68 1.67 0.36 1.34 -1 1 C-0.67 0.67 -0.34 0.34 0 0 Z " fill="#1D2529" transform="translate(388,298)"/>
<path d="M0 0 C4.49644342 4.49644342 5.34849138 11.87581896 6 18 C6.66 17.67 7.32 17.34 8 17 C8 20.3 8 23.6 8 27 C2.52246974 21.52246974 1.36935333 11.34206468 0 4 C0 2.68 0 1.36 0 0 Z " fill="#604D55" transform="translate(489,531)"/>
<path d="M0 0 C-0.98076152 2.18785263 -1.70848526 3.75512761 -3.5625 5.3125 C-5.76633977 7.89961625 -5.63337829 10.70040465 -6 14 C-6.33 14.33 -6.66 14.66 -7 15 C-7.23427778 17.01594582 -7.41336124 19.038474 -7.5625 21.0625 C-7.64628906 22.16722656 -7.73007812 23.27195312 -7.81640625 24.41015625 C-7.87699219 25.26480469 -7.93757812 26.11945312 -8 27 C-8.33 27 -8.66 27 -9 27 C-9.5513782 7.45670595 -9.5513782 7.45670595 -5.0625 1.375 C-3 0 -3 0 0 0 Z " fill="#60474E" transform="translate(614,523)"/>
<path d="M0 0 C0.33 0 0.66 0 1 0 C1.25023366 7.38189295 1.25023366 7.38189295 0.01953125 10.421875 C-1.41559621 14.05093294 -1.39236635 17.51277868 -1.55859375 21.37890625 C-2.05878645 24.34907707 -3.02893678 25.76612835 -5 28 C-2.40456182 2.40456182 -2.40456182 2.40456182 0 0 Z " fill="#61555E" transform="translate(574,739)"/>
<path d="M0 0 C0.66 0.33 1.32 0.66 2 1 C2.37890625 3.43359375 2.37890625 3.43359375 2.5625 6.4375 C2.73109366 10.36535217 2.73109366 10.36535217 4 14 C4.23029956 16.37123246 4.41119942 18.74741943 4.5625 21.125 C4.64628906 22.40632812 4.73007812 23.68765625 4.81640625 25.0078125 C4.87699219 25.99523437 4.93757812 26.98265625 5 28 C3.00306377 25.00459566 2.76205661 24.24932089 2.5625 20.875 C2.26169578 17.44917414 1.60816817 14.5455135 0.4375 11.3125 C-0.8419955 7.74863693 -1.38271655 4.82716549 -1 1 C-0.67 0.67 -0.34 0.34 0 0 Z " fill="#615760" transform="translate(524,685)"/>
<path d="M0 0 C-0.66 0.66 -1.32 1.32 -2 2 C-1.34 2.66 -0.68 3.32 0 4 C-3.82989106 5.80230168 -6.78121808 6.19622241 -11 6 C-9.89210592 2.67631776 -9.51563783 2.38436907 -6.625 0.75 C-6.01914062 0.39421875 -5.41328125 0.0384375 -4.7890625 -0.328125 C-3 -1 -3 -1 0 0 Z " fill="#5E1F21" transform="translate(790,260)"/>
<path d="M0 0 C0.66 0.33 1.32 0.66 2 1 C-2 5 -6 9 -10 13 C-8.35 13 -6.7 13 -5 13 C-5.33 13.99 -5.66 14.98 -6 16 C-6 15.34 -6 14.68 -6 14 C-7.65 14 -9.3 14 -11 14 C-10.59102482 9.1009995 -8.60793633 7.3004017 -4.9375 4.1875 C-3.55884766 3.00220703 -3.55884766 3.00220703 -2.15234375 1.79296875 C-1.44207031 1.20128906 -0.73179687 0.60960937 0 0 Z " fill="#1F282C" transform="translate(232,532)"/>
<path d="M0 0 C0.99 0 1.98 0 3 0 C2.29563752 8.04456097 1.18531495 16.01350895 0 24 C-0.33 24 -0.66 24 -1 24 C-0.85811015 21.45805839 -0.71160845 18.91652007 -0.5625 16.375 C-0.52318359 15.66214844 -0.48386719 14.94929687 -0.44335938 14.21484375 C-0.19690319 10.08196318 0.23470053 6.07730976 1 2 C0.34 1.67 -0.32 1.34 -1 1 C-0.67 0.67 -0.34 0.34 0 0 Z " fill="#60464D" transform="translate(606,635)"/>
<path d="M0 0 C1.65 0 3.3 0 5 0 C5 0.66 5 1.32 5 2 C4.01 2 3.02 2 2 2 C3.20157066 8.02197638 3.20157066 8.02197638 5.1875 13.8125 C6.14376108 16.38704907 5.75958389 17.43034387 5 20 C2.29466594 13.26812223 0.47567125 7.25398658 0 0 Z " fill="#60515A" transform="translate(285,539)"/>
<path d="M0 0 C0.66 0.33 1.32 0.66 2 1 C0.54782324 2.50596108 -0.91192861 4.00462104 -2.375 5.5 C-3.18710937 6.3353125 -3.99921875 7.170625 -4.8359375 8.03125 C-7 10 -7 10 -9 10 C-9 13.63 -9 17.26 -9 21 C-9.33 21 -9.66 21 -10 21 C-10.63380122 16.83803867 -10.84127643 13.14204923 -10 9 C-7.10825889 5.36249408 -3.78281157 2.67498818 0 0 Z " fill="#252F34" transform="translate(510,239)"/>
<path d="M0 0 C-0.66 1.32 -1.32 2.64 -2 4 C-0.68 4.33 0.64 4.66 2 5 C-0.35968744 7.09749995 -1.54616994 7.96905704 -4.75 8.1875 C-5.4925 8.125625 -6.235 8.06375 -7 8 C-6.44414399 4.1090079 -4.34122117 0 0 0 Z " fill="#5F3237" transform="translate(782,207)"/>
<path d="M0 0 C-3.12352227 1.00465729 -6.24904853 2.00292927 -9.375 3 C-10.26445313 3.28617187 -11.15390625 3.57234375 -12.0703125 3.8671875 C-13.34648438 4.27324219 -13.34648438 4.27324219 -14.6484375 4.6875 C-15.43395996 4.93886719 -16.21948242 5.19023437 -17.02880859 5.44921875 C-19 6 -19 6 -21 6 C-20.625 4.0625 -20.625 4.0625 -20 2 C-19.34 1.67 -18.68 1.34 -18 1 C-18 1.66 -18 2.32 -18 3 C-17.03578125 2.69964844 -16.0715625 2.39929688 -15.078125 2.08984375 C-13.81484375 1.70957031 -12.5515625 1.32929688 -11.25 0.9375 C-9.99703125 0.55464844 -8.7440625 0.17179687 -7.453125 -0.22265625 C-4.15477777 -0.96515749 -3.06693411 -0.94299411 0 0 Z " fill="#334047" transform="translate(652,397)"/>
<path d="M0 0 C0.66 0.33 1.32 0.66 2 1 C0.89718873 2.27200971 -0.20730769 3.54255853 -1.3125 4.8125 C-1.92738281 5.52019531 -2.54226563 6.22789062 -3.17578125 6.95703125 C-6.44911047 10.6228796 -6.44911047 10.6228796 -8 12 C-8.66 12 -9.32 12 -10 12 C-8.52278578 8.54798361 -6.56205999 6.35038064 -3.875 3.75 C-3.15054688 3.04359375 -2.42609375 2.3371875 -1.6796875 1.609375 C-1.12539063 1.07828125 -0.57109375 0.5471875 0 0 Z " fill="#181E21" transform="translate(795,555)"/>
<path d="M0 0 C0.66 0.33 1.32 0.66 2 1 C-5.11389522 9.6309795 -5.11389522 9.6309795 -10 12 C-8.52278578 8.54798361 -6.56205999 6.35038064 -3.875 3.75 C-3.15054688 3.04359375 -2.42609375 2.3371875 -1.6796875 1.609375 C-1.12539063 1.07828125 -0.57109375 0.5471875 0 0 Z " fill="#191F23" transform="translate(723,560)"/>
<path d="M0 0 C0.66 0.33 1.32 0.66 2 1 C1.27683594 1.81404297 1.27683594 1.81404297 0.5390625 2.64453125 C-0.40839844 3.71767578 -0.40839844 3.71767578 -1.375 4.8125 C-2.31472656 5.87404297 -2.31472656 5.87404297 -3.2734375 6.95703125 C-5.140599 9.08803819 -5.140599 9.08803819 -7 12 C-6.01 12.33 -5.02 12.66 -4 13 C-5.32 13 -6.64 13 -8 13 C-7.88759583 8.3914291 -6.61543768 6.27090202 -3.4375 3.125 C-2.30330262 2.07067568 -1.16107206 1.02465367 0 0 Z " fill="#141A1D" transform="translate(240,318)"/>
<path d="M0 0 C2.12750156 0.22773256 4.25208056 0.48290818 6.375 0.75 C8.15003906 0.95882812 8.15003906 0.95882812 9.9609375 1.171875 C13 2 13 2 14.4140625 4.078125 C14.60742188 4.71234375 14.80078125 5.3465625 15 6 C14.01 5.34 13.02 4.68 12 4 C8.80193335 3.5396236 8.80193335 3.5396236 5.3125 3.375 C3.54326172 3.26285156 3.54326172 3.26285156 1.73828125 3.1484375 C0.83464844 3.09945312 -0.06898438 3.05046875 -1 3 C-0.67 2.01 -0.34 1.02 0 0 Z " fill="#5F3B41" transform="translate(803,217)"/>
<path d="M0 0 C0 3 0 3 -1 6 C3.455 5.01 3.455 5.01 8 4 C7 6 7 6 4.75 7.125 C1.98386705 8.00513321 -0.12048351 8.1645438 -3 8 C-2.25 2.25 -2.25 2.25 0 0 Z " fill="#A99F6E" transform="translate(767,711)"/>
<path d="M0 0 C-1.59092052 4.13639336 -4.60474918 7.23213248 -8 10 C-8.66 10 -9.32 10 -10 10 C-8.50006099 6.10015857 -4.53875449 0 0 0 Z " fill="#5E2225" transform="translate(734,263)"/>
<path d="M0 0 C-0.66 3.63 -1.32 7.26 -2 11 C-2.95904856 7.16380575 -2.91892116 5.67568464 -2 2 C-4.31 2.66 -6.62 3.32 -9 4 C-9 3.34 -9 2.68 -9 2 C-3.375 0 -3.375 0 0 0 Z " fill="#615861" transform="translate(350,517)"/>
<path d="M0 0 C0.66 0.33 1.32 0.66 2 1 C0.90344712 2.31886772 -0.20253423 3.62990057 -1.3125 4.9375 C-1.92738281 5.66839844 -2.54226563 6.39929688 -3.17578125 7.15234375 C-5 9 -5 9 -8 10 C-6.34908222 5.70761377 -3.26245434 3.1206085 0 0 Z " fill="#DAAF51" transform="translate(915,480)"/>
<path d="M0 0 C0 0.66 0 1.32 0 2 C-0.804375 2.556875 -1.60875 3.11375 -2.4375 3.6875 C-5.72579387 6.65498471 -5.75085983 8.68157031 -6 13 C-6.33 13 -6.66 13 -7 13 C-7.28527105 9.62112287 -7.45018698 6.36826645 -7 3 C-4.56149148 0.81817659 -3.2678851 0 0 0 Z " fill="#455861" transform="translate(584,452)"/>
<path d="M0 0 C2.97 0 5.94 0 9 0 C9 0.99 9 1.98 9 3 C8.67 2.67 8.34 2.34 8 2 C5.62694422 1.58219121 5.62694422 1.58219121 3 2 C0.81222534 3.9375006 0.81222534 3.9375006 -1 6 C-1.66 6 -2.32 6 -3 6 C-2 4 -1 2 0 0 Z " fill="#604D55" transform="translate(422,171)"/>
<path d="M0 0 C2.7710688 2.34591852 3.52059284 4.14776201 4.1875 7.6875 C4.34605469 8.49574219 4.50460937 9.30398438 4.66796875 10.13671875 C4.77753906 10.75160156 4.88710938 11.36648438 5 12 C4.34 12 3.68 12 3 12 C2.49166409 10.75336669 1.99368855 9.50250613 1.5 8.25 C1.2215625 7.55390625 0.943125 6.8578125 0.65625 6.140625 C0 4 0 4 0 0 Z " fill="#60535B" transform="translate(556,851)"/>
<path d="M0 0 C2.31459868 1.81817001 2.95377187 2.75615543 3.51171875 5.69921875 C3.56972656 6.68535156 3.62773437 7.67148437 3.6875 8.6875 C3.75324219 9.68136719 3.81898438 10.67523437 3.88671875 11.69921875 C3.92410156 12.45847656 3.96148437 13.21773437 4 14 C1.8553857 11.8553857 1.55435397 10.98260002 0.875 8.125 C0.70742188 7.44695313 0.53984375 6.76890625 0.3671875 6.0703125 C0 4 0 4 0 0 Z " fill="#61525A" transform="translate(299,583)"/>
<path d="M0 0 C0.66 0.33 1.32 0.66 2 1 C1.07038578 2.15224028 0.1309875 3.29659176 -0.8125 4.4375 C-1.59560547 5.39462891 -1.59560547 5.39462891 -2.39453125 6.37109375 C-4 8 -4 8 -7 9 C-5.44499019 5.18315774 -2.96404505 2.80804268 0 0 Z " fill="#1C2427" transform="translate(828,548)"/>
<path d="M0 0 C1.60080151 4.00200378 0.29279692 7.04556236 -1 11 C-1.99 10.67 -2.98 10.34 -4 10 C-3.67 8.68 -3.34 7.36 -3 6 C-3 6.66 -3 7.32 -3 8 C-2.34 8 -1.68 8 -1 8 C-1.020625 6.865625 -1.04125 5.73125 -1.0625 4.5625 C-1 1 -1 1 0 0 Z " fill="#604C54" transform="translate(316,581)"/>
<path d="M0 0 C0.33 0 0.66 0 1 0 C1.33 1.98 1.66 3.96 2 6 C2.66 5.67 3.32 5.34 4 5 C3 7 2 9 1 11 C0.34 11 -0.32 11 -1 11 C-0.67 7.37 -0.34 3.74 0 0 Z " fill="#29343A" transform="translate(781,562)"/>
<path d="M0 0 C0 0.66 0 1.32 0 2 C-1.98 2.33 -3.96 2.66 -6 3 C-6 3.66 -6 4.32 -6 5 C-6.66 4.67 -7.32 4.34 -8 4 C-8 3.01 -8 2.02 -8 1 C-4.93251126 -0.86240388 -3.40254489 -1.2151946 0 0 Z " fill="#5C707C" transform="translate(347,516)"/>
<path d="M0 0 C0.33 0.66 0.66 1.32 1 2 C0.67 2.66 0.34 3.32 0 4 C1.32 4.33 2.64 4.66 4 5 C1.09399739 6.25664978 -0.79604584 7 -4 7 C-2.79618552 4.50638429 -1.54571278 2.31856917 0 0 Z " fill="#949576" transform="translate(900,530)"/>
<path d="M0 0 C0.66 0.33 1.32 0.66 2 1 C0.92892883 1.86949317 -0.15745944 2.72014205 -1.25 3.5625 C-1.85328125 4.03816406 -2.4565625 4.51382813 -3.078125 5.00390625 C-5 6 -5 6 -7.234375 5.65234375 C-7.81703125 5.43707031 -8.3996875 5.22179687 -9 5 C-7.54735962 4.1361871 -6.0876837 3.28419546 -4.625 2.4375 C-3.40683594 1.72400391 -3.40683594 1.72400391 -2.1640625 0.99609375 C-1.44992187 0.66738281 -0.73578125 0.33867188 0 0 Z " fill="#3A4951" transform="translate(435,702)"/>
<path d="M0 0 C1.32 0 2.64 0 4 0 C2.25 3.875 2.25 3.875 0 5 C0 4.34 0 3.68 0 3 C-1.65 3 -3.3 3 -5 3 C-4.360625 2.690625 -3.72125 2.38125 -3.0625 2.0625 C-1.06389179 1.1654837 -1.06389179 1.1654837 0 0 Z " fill="#919377" transform="translate(902,548)"/>
<path d="M0 0 C0.33 0 0.66 0 1 0 C0.67 2.97 0.34 5.94 0 9 C-0.99 9 -1.98 9 -3 9 C-3 7.35 -3 5.7 -3 4 C-2.34 4 -1.68 4 -1 4 C-0.67 2.68 -0.34 1.36 0 0 Z " fill="#5E1F22" transform="translate(431,194)"/>
<path d="M0 0 C0.33 0.66 0.66 1.32 1 2 C-1.57784846 4.64752004 -3.91648098 6.94432065 -7 9 C-5.44499019 5.18315774 -2.96404505 2.80804268 0 0 Z " fill="#999774" transform="translate(893,592)"/>
<path d="M0 0 C1.45606519 4.52092968 0.27032841 7.51648796 -1 12 C-1.33 12 -1.66 12 -2 12 C-2.05422947 10.5629191 -2.09289723 9.12524538 -2.125 7.6875 C-2.14820313 6.88699219 -2.17140625 6.08648437 -2.1953125 5.26171875 C-2 3 -2 3 0 0 Z " fill="#605058" transform="translate(383,386)"/>
<path d="M0 0 C0 3.3 0 6.6 0 10 C-0.33 10 -0.66 10 -1 10 C-1.103125 8.88625 -1.20625 7.7725 -1.3125 6.625 C-1.539375 5.42875 -1.76625 4.2325 -2 3 C-2.99 2.34 -3.98 1.68 -5 1 C-3 0 -3 0 0 0 Z " fill="#334047" transform="translate(409,701)"/>
<path d="M0 0 C1.98 0 3.96 0 6 0 C5.67 0.99 5.34 1.98 5 3 C3.35 3 1.7 3 0 3 C0 2.01 0 1.02 0 0 Z " fill="#5F3C42" transform="translate(311,615)"/>
</svg>
